<?xml version="1.0" encoding="utf-8"?>
<!-- Generator: Adobe Illustrator 20.1.0, SVG Export Plug-In . SVG Version: 6.00 Build 0)  -->
<svg version="1.1" id="Layer_1" xmlns="http://www.w3.org/2000/svg" xmlns:xlink="http://www.w3.org/1999/xlink" x="0px" y="0px"
	 viewBox="0 0 500 500" style="enable-background:new 0 0 500 500;" xml:space="preserve">
<style type="text/css">
	.st0{fill:#d3af37;}
</style>
<g>
	<path class="st0" d="M88.8,187.7c20.2,6.6,42-4.4,48.5-24.5c0.3-0.8-0.2-1.7-1-2l-7.5-2.5l-55.1-18l-7.5-2.5c-0.8-0.3-1.7,0.2-2,1
		c-3.2,9.8-2.4,20.2,2.3,29.3C71.1,177.7,79,184.5,88.8,187.7z M74.3,144.3l51.8,16.9c-5.8,12.6-20.1,19-33.5,14.7
		C79.4,171.5,71.5,157.9,74.3,144.3z M66.7,141.8l4.6,1.5c-3.3,15.3,5.4,30.7,20.4,35.6c15,4.9,31.1-2.4,37.5-16.7l4.6,1.5
		c-6.6,17.5-26,26.9-44.1,21c-9-2.9-16.2-9.2-20.5-17.6C65.2,159.2,64.3,150.3,66.7,141.8z"/>

		<rect x="79.8" y="150.8" transform="matrix(0.3105 -0.9506 0.9506 0.3105 -88.7063 182.4165)" class="st0" width="3.1" height="3.1"/>

		<rect x="97.5" y="154.9" transform="matrix(0.3105 -0.9506 0.9506 0.3105 -80.4447 202.032)" class="st0" width="3.1" height="3.1"/>

		<rect x="112.7" y="161.5" transform="matrix(0.3105 -0.9506 0.9506 0.3105 -76.2578 221.0316)" class="st0" width="3.1" height="3.1"/>
	<rect x="103.2" y="165" transform="matrix(0.3105 -0.9506 0.9506 0.3105 -86.109 214.515)" class="st0" width="3.1" height="3.1"/>

		<rect x="85.3" y="159.2" transform="matrix(0.3105 -0.9506 0.9506 0.3105 -92.8989 193.452)" class="st0" width="3.1" height="3.1"/>

		<rect x="92.6" y="169.8" transform="matrix(0.3105 -0.9506 0.9506 0.3105 -97.9972 207.6915)" class="st0" width="3.1" height="3.1"/>
	<path class="st0" d="M95.9,103l23.5,6l-2.9,11.4l-3-0.8c-0.8-0.2-1.7,0.3-1.9,1.1l-0.8,3c-0.4,1.7,0.6,3.4,2.3,3.8l24.2,6.2
		c1.7,0.4,3.4-0.6,3.8-2.3l0.8-3c0.2-0.8-0.3-1.7-1.1-1.9l-3-0.8l2.9-11.4l23.5,6c1.7,0.4,3.4-0.6,3.8-2.3l12.5-49.2
		c0.4-1.7-0.6-3.4-2.3-3.8L110,47.7c-1.7-0.4-3.4,0.6-3.8,2.3L93.6,99.2C93.2,100.9,94.2,102.6,95.9,103z M138.4,129.1l-0.4,1.5
		l-24.2-6.2l0.4-1.5L138.4,129.1z M119.5,121.1l2.9-11.4l15.1,3.9l-2.9,11.4L119.5,121.1z M109.2,50.8l68.1,17.3l-9.2,36.3
		L99.9,87.1L109.2,50.8z M99.2,90.1l68.1,17.3l-2.5,9.8l-25-6.4l-18.2-4.6l-25-6.4L99.2,90.1z"/>
	<path class="st0" d="M162.5,77.4l2.7-1.6l-1.6-2.7l-2.7,1.6c-0.5-0.6-1.2-1-1.9-1.4l0.8-3.2l-3-0.8l-0.8,3.2
		c-0.8,0-1.6,0.1-2.3,0.3l-1.6-2.7l-2.7,1.6l1.6,2.7c-0.6,0.5-1,1.2-1.4,1.9l-3.2-0.8l-0.8,3l3.2,0.8c0,0.8,0.1,1.6,0.3,2.3
		l-2.7,1.6l1.6,2.7l2.7-1.6c0.5,0.6,1.2,1,1.9,1.4l-0.8,3.2l3,0.8l0.8-3.2c0.8,0,1.6-0.1,2.3-0.3l1.6,2.7l2.7-1.6l-1.6-2.7
		c0.6-0.5,1-1.2,1.4-1.9l3.2,0.8l0.8-3l-3.2-0.8C162.9,78.9,162.8,78.2,162.5,77.4z M159.6,80.5c-0.5,2.1-2.7,3.4-4.7,2.8
		c-2.1-0.5-3.4-2.7-2.8-4.7c0.5-2.1,2.7-3.4,4.7-2.8C158.9,76.3,160.2,78.4,159.6,80.5z"/>

		<rect x="134.6" y="62.7" transform="matrix(0.2466 -0.9691 0.9691 0.2466 36.6034 183.3278)" class="st0" width="3.1" height="10.9"/>

		<rect x="127.4" y="61.4" transform="matrix(0.2465 -0.9691 0.9691 0.2465 26.697 179.8076)" class="st0" width="3.1" height="22.6"/>

		<rect x="122.1" y="62.6" transform="matrix(0.2465 -0.9691 0.9691 0.2465 17.7496 178.4839)" class="st0" width="3.1" height="30.5"/>

		<rect x="124.3" y="73.5" transform="matrix(0.2465 -0.9691 0.9691 0.2465 12.6391 185.9467)" class="st0" width="3.1" height="22.6"/>

		<rect x="124.8" y="64.1" transform="matrix(0.2466 -0.9691 0.9691 0.2466 31.6151 171.9052)" class="st0" width="3.1" height="3.1"/>

		<rect x="108.8" y="79.3" transform="matrix(0.2465 -0.9691 0.9691 0.2465 4.7746 167.9359)" class="st0" width="3.1" height="3.1"/>

		<rect x="153.1" y="92.2" transform="matrix(0.2465 -0.9691 0.9691 0.2465 25.6548 220.5426)" class="st0" width="3.1" height="3.1"/>

		<rect x="148.6" y="91.1" transform="matrix(0.2466 -0.9691 0.9691 0.2466 23.3504 215.2684)" class="st0" width="3.1" height="3.1"/>
	<path class="st0" d="M219.1,62.8c0.4,0.2,0.9,0.2,1.3,0.1l3.5-1.2c0.9-0.3,1.4-1.3,1.1-2.2c-0.3-0.9-1.3-1.4-2.2-1.1l-3.5,1.2
		c-0.9,0.3-1.4,1.3-1.1,2.2C218.4,62.2,218.7,62.6,219.1,62.8z"/>
	<path class="st0" d="M208.7,66.2c0.4,0.2,0.9,0.2,1.3,0.1l2.1-0.7c0.9-0.3,1.4-1.3,1.1-2.2c-0.3-0.9-1.3-1.4-2.2-1.1l-2.1,0.7
		c-0.9,0.3-1.4,1.3-1.1,2.2C208,65.7,208.3,66,208.7,66.2z"/>
	<path class="st0" d="M203.5,74c0.2,0.5,0.5,0.8,0.9,1c0.4,0.2,0.9,0.2,1.3,0.1l0.8-0.3l1.1,3.4c0.4,1.1,0.5,2.3,0.4,3.5l0,0.3
		c-0.1,1.7,0.1,3.3,0.6,4.9l8.8,26.2c0.4,1.3,1.4,2.4,2.6,2.9c1.2,0.6,2.6,0.7,3.9,0.3c0.7-0.2,1.3-0.6,1.8-1
		c1.3,1.6,3.5,2.3,5.5,1.6c0.6-0.2,1.2-0.5,1.7-0.9c1.3,1.8,3.6,2.6,5.8,1.9c2.2-0.7,3.6-2.8,3.5-5c0.6,0,1.2-0.1,1.8-0.3
		c0,0,0,0,0,0c2.7-0.9,4.1-3.8,3.2-6.5l-0.1-0.2l4.4-1.5c1.3-0.4,3.3-1.4,4.7-2.6l0.2-0.2c0.9-0.8,1.9-1.4,3-1.8l3.4-1.1l0.3,0.8
		c0.1,0.4,0.5,0.8,0.9,1c0.4,0.2,0.9,0.2,1.3,0.1l11-3.7c0.9-0.3,1.4-1.3,1.1-2.2l-9.1-27c-0.3-0.9-1.3-1.4-2.2-1.1l-11,3.7
		c-0.4,0.1-0.8,0.5-1,0.9s-0.2,0.9-0.1,1.3l0.3,0.9l-3.3,1.1c-1.2,0.4-2.4,0.4-3.8-0.1L235,68.3c-0.9-0.4-1.8-0.5-2.7-0.4l-0.5-1.5
		l0.9-0.3c0.4-0.1,0.8-0.5,1-0.9c0.2-0.4,0.2-0.9,0.1-1.3L229.5,51c-0.3-0.9-1.3-1.4-2.2-1.1l-27,9.1c-0.4,0.1-0.8,0.5-1,0.9
		c-0.2,0.4-0.2,0.9-0.1,1.3L203.5,74z M265.6,70.5l7.9,23.7l-7.7,2.6l-0.3-0.8l0,0L258.3,74c0,0,0,0,0,0l-0.3-0.9L265.6,70.5z
		 M232.1,71.8c0.2-0.5,0.8-0.6,1.3-0.4l12.5,6.2c0.1,0,0.1,0.1,0.2,0.1c2.2,0.7,4.2,0.8,6.1,0.1l3.3-1.1l6.3,18.8l-3.4,1.1
		c-1.6,0.5-3,1.4-4.2,2.5l-0.2,0.2c-0.8,0.7-2.2,1.5-3.5,1.9l-4.4,1.5l-4.2-12.4c2.9,1.4,5,1.4,5.1,1.4l0-3.5l0,0c0,0-3-0.1-6.8-3
		l-2.2-6.4l0,0c-0.2-0.4-0.5-0.7-0.9-0.9c0,0,0,0,0,0l-3.6-1.8C232,75.2,231.4,73.3,232.1,71.8z M232,79.1l2.9,1.4l9,26.8
		c0.3,0.9-0.2,1.8-1,2.1c0,0,0,0,0,0c-0.9,0.3-1.8-0.2-2-1c0-0.1-4.6-13.6-4.6-13.6c-0.1-0.3-0.2-0.5-0.4-0.7
		c-0.3-0.3-0.8-0.5-1.3-0.5c-0.2,0-0.3,0-0.5,0.1c-0.5,0.2-0.9,0.6-1.1,1c0,0.1,0,0.1-0.1,0.2c0,0.1,0,0.2-0.1,0.3
		c0,0.2,0,0.5,0.1,0.7c0,0,5.7,16.9,5.7,17c0.1,0.8-0.3,1.6-1.1,1.8c-0.8,0.3-1.8-0.2-2.1-1l-6.1-18c-0.1-0.2-0.1-0.3-0.2-0.5
		c-0.4-0.6-1.2-0.9-2-0.6c-0.6,0.2-0.9,0.6-1.1,1.1c-0.1,0.3-0.1,0.7,0,1.1l5.1,15.2c0.1,0.7-0.4,1.4-1.1,1.7
		c-0.4,0.1-0.9,0.1-1.2-0.1c-0.4-0.2-0.7-0.5-0.8-0.9l-5.6-16.7c-0.3-0.9-1.3-1.4-2.2-1.1c-0.1,0-0.1,0-0.2,0.1
		c-0.8,0.4-1.2,1.3-0.9,2.1l4.8,14.4c0.1,0.7-0.4,1.4-1.1,1.7c-0.8,0.3-1.8-0.2-2.1-1l-8.8-26.2c-0.4-1.1-0.5-2.3-0.4-3.5l0-0.3
		c0.1-1.7-0.1-3.3-0.6-4.9l-1.1-3.4l18.8-6.3l0.8,2.3c-0.1,0.1-0.2,0.3-0.3,0.5c0,0,0,0,0,0C227.5,73.5,228.8,77.5,232,79.1z
		 M226.7,53.8l3.2,9.6l-0.9,0.3c0,0,0,0,0,0L207,71c0,0,0,0,0,0l-0.8,0.3l-3.2-9.6L226.7,53.8z"/>
	<polygon class="st0" points="169.2,259 169.2,259 169.2,259 	"/>
	<path class="st0" d="M191.8,249.3l-5.3-4.8l10.9-12.1c3.1,1.4,6.8,0.7,9.2-1.9l7.4-8.3c2.9-3.3,2.7-8.3-0.6-11.2l-8.9-8l3.2-3.5
		c1.8-2,1.6-5-0.4-6.7l-11.8-10.6c-2-1.8-5-1.6-6.7,0.4l-3.2,3.5l-8.9-8c-3.3-2.9-8.3-2.7-11.2,0.6l-7.4,8.3
		c-2.4,2.6-2.7,6.4-0.9,9.3l-10.9,12.1l-5.3-4.8c-2-1.8-5-1.6-6.7,0.4l-12.7,14.2c-0.6,0.7-0.5,1.7,0.1,2.2l9.4,8.5l36.6,32.9
		l9.4,8.5c0.7,0.6,1.7,0.5,2.2-0.1l12.7-14.2C193.9,254.1,193.7,251.1,191.8,249.3z M191.1,184.8c0.6-0.7,1.6-0.7,2.2-0.1l11.8,10.6
		c0.7,0.6,0.7,1.6,0.1,2.2l-3.2,3.5l-14.2-12.7L191.1,184.8z M160.5,189.2l7.4-8.3c1.8-2,4.8-2.1,6.7-0.4l3,2.7l-2.1,2.4l-1.8-1.6
		l-2.1,2.4l1.8,1.6l-2.1,2.4l-1.8-1.6l-2.1,2.4l1.8,1.6L167,195l2.4,2.1l2.1-2.4l1.8,1.6l2.1-2.4l-1.8-1.6l2.1-2.4l1.8,1.6l2.1-2.4
		l-1.8-1.6l2.1-2.4l26,23.3l-2.1,2.4l-1.8-1.6l-2.1,2.4l1.8,1.6l-2.1,2.4l-1.8-1.6l-2.1,2.4l1.8,1.6l-2.1,2.4l2.4,2.1l2.1-2.4
		l1.8,1.6l2.1-2.4l-1.8-1.6l2.1-2.4l1.8,1.6l2.1-2.4l-1.8-1.6l2.1-2.4l3,2.7c2,1.8,2.1,4.8,0.4,6.7l-7.4,8.3
		c-1.6,1.8-4.3,2.1-6.3,0.7c-0.2-0.1-0.3-0.2-0.5-0.4l-36.6-32.9c-0.2-0.1-0.3-0.3-0.4-0.4C158.8,193.7,158.9,191,160.5,189.2z
		 M141.8,208.7l2.4,2.1l-7.4,8.3l-2.4-2.1L141.8,208.7z M136.6,206.2c0.6-0.7,1.6-0.7,2.2-0.1l0.6,0.5l-7.4,8.3l-1.8-1.6
		L136.6,206.2z M125,219.2l3.2-3.5l6.5,5.8l-3.2,3.5L125,219.2z M169.2,259L169.2,259l-35.4-31.8l20.7-23l32.5,29.2l2.1-2.4
		l-32.5-29.2l2.7-3l35.4,31.8L169.2,259L169.2,259L169.2,259z M186.1,248.5l-7.4,8.3l-1.8-1.6l7.4-8.3L186.1,248.5z M178.1,266.9
		l-6.5-5.8l3.2-3.5l6.5,5.8L178.1,266.9z M189.8,253.9l-6.4,7.1l-2.4-2.1l7.4-8.3l1.2,1.1C190.3,252.3,190.4,253.3,189.8,253.9z"/>
	<path class="st0" d="M156.7,213.6c-0.7-0.6-1.7-0.5-2.2,0.1l-9.5,10.6c-1.8,2-1.6,5,0.4,6.7l18.9,17c2,1.8,5,1.6,6.7-0.4l9.5-10.6
		c0.6-0.7,0.5-1.7-0.1-2.2L156.7,213.6z M168.5,245.5c-0.6,0.7-1.6,0.7-2.2,0.1l-18.9-17c-0.7-0.6-0.7-1.6-0.1-2.2l8.5-9.4l9.4,8.5
		l-4.8,5.3l-1.2-1.1l-2.1,2.4l4.7,4.2l2.1-2.4l-1.2-1.1l4.8-5.3l9.4,8.5L168.5,245.5z"/>
	<path class="st0" d="M181.2,210c2.9,2.6,7.5,2.4,10.1-0.5c2.6-2.9,2.4-7.5-0.5-10.1c-2.9-2.6-7.5-2.4-10.1,0.5
		S178.3,207.4,181.2,210z M183.1,202c1.5-1.6,4-1.8,5.6-0.3c1.6,1.5,1.8,4,0.3,5.6c-1.5,1.6-4,1.8-5.6,0.3
		C181.7,206.2,181.6,203.7,183.1,202z"/>

		<rect x="167.5" y="233.8" transform="matrix(0.6684 -0.7438 0.7438 0.6684 -119.0021 203.8262)" class="st0" width="3.2" height="3.2"/>

		<rect x="155.7" y="223.2" transform="matrix(0.6684 -0.7438 0.7438 0.6684 -115.0263 191.5325)" class="st0" width="3.2" height="3.2"/>
	<path class="st0" d="M113.9,282.2l-0.6,0.3c-0.7,0.4-1,1.2-0.6,1.9s1.2,1,1.9,0.6l0.6-0.3c0.7-0.4,1-1.2,0.6-1.9
		C115.5,282.1,114.6,281.8,113.9,282.2z"/>
	<path class="st0" d="M111.8,332.5l37.1-30.2c0.6-0.5,0.7-1.4,0.2-2l-43.7-53.5c-0.5-0.6-1.4-0.7-2-0.2l-37.1,30.2
		c-0.6,0.5-0.7,1.4-0.2,2l43.7,53.5C110.3,332.9,111.2,333,111.8,332.5z M104.1,249.7L146,301l-34.8,28.4l-41.8-51.3L104.1,249.7z"
		/>
	<path class="st0" d="M100.7,274.3l2.5,9.5c0.1,0.4,0.4,0.7,0.7,0.9c0.3,0.2,0.8,0.2,1.1,0.1l6.1-2c0.2-0.1,0.3-0.1,0.5-0.3
		c0.4-0.3,0.6-0.9,0.5-1.5l-0.4-1.3l0.5,0.4c0.3,0.2,0.7,0.3,1.1,0.3c0.4-0.1,0.7-0.3,0.9-0.6l4.1-5.8c0.2-0.3,0.3-0.7,0.2-1.1
		c-0.1-0.4-0.3-0.7-0.7-0.9l-8.2-5c-0.2-1-0.6-1.9-1.3-2.8c-2.3-2.8-6.4-3.2-9.2-0.9c-2.8,2.3-3.2,6.4-0.9,9.2
		C99,273.3,99.8,273.9,100.7,274.3z M105.6,281.7l-1.8-6.7c0.4,0,0.8-0.1,1.2-0.2l3,2.3l1,3.6L105.6,281.7z M109.7,270.3l5.5,3.4
		l-2.4,3.4l-5-3.8C108.7,272.4,109.3,271.4,109.7,270.3z M101.1,265.5c1.6-1.3,3.9-1.1,5.2,0.5c1.3,1.6,1.1,3.9-0.5,5.2
		s-3.9,1.1-5.2-0.5C99.2,269.1,99.5,266.8,101.1,265.5z"/>
	<path class="st0" d="M88.6,270.5c-0.5-0.6-1.4-0.7-2-0.2l-9.7,7.9c-0.6,0.5-0.7,1.4-0.2,2c0.5,0.6,1.4,0.7,2,0.2l9.7-7.9
		C89,272,89.1,271.1,88.6,270.5z"/>
	<path class="st0" d="M92.8,275.7c-0.5-0.6-1.4-0.7-2-0.2l-9.7,7.9c-0.6,0.5-0.7,1.4-0.2,2s1.4,0.7,2,0.2l9.7-7.9
		C93.2,277.2,93.3,276.3,92.8,275.7z"/>
	<path class="st0" d="M97.1,280.9c-0.5-0.6-1.4-0.7-2-0.2l-9.7,7.9c-0.6,0.5-0.7,1.4-0.2,2s1.4,0.7,2,0.2l9.7-7.9
		C97.5,282.5,97.6,281.6,97.1,280.9z"/>
	<path class="st0" d="M125.8,282.9c-0.5-0.6-1.4-0.7-2-0.2L97.7,304c-0.6,0.5-0.7,1.4-0.2,2c0.5,0.6,1.4,0.7,2,0.2l26.1-21.3
		C126.2,284.4,126.3,283.5,125.8,282.9z"/>
	<path class="st0" d="M130,288.1c-0.5-0.6-1.4-0.7-2-0.2l-26.1,21.3c-0.6,0.5-0.7,1.4-0.2,2c0.5,0.6,1.4,0.7,2,0.2l26.1-21.3
		C130.4,289.6,130.5,288.7,130,288.1z"/>
	<path class="st0" d="M129.8,297c-0.5-0.6-1.4-0.7-2-0.2l-21.6,17.6c-0.6,0.5-0.7,1.4-0.2,2c0.5,0.6,1.4,0.7,2,0.2l21.6-17.6
		C130.2,298.5,130.3,297.6,129.8,297z"/>
	<path class="st0" d="M240.4,287.3c1-3.2,1-6.6-0.2-9.8c-1.3-3.5-3.9-6.4-7.3-8.1c-3.5-1.8-7.5-2.1-11.3-0.8
		c-3.4,1.1-6.3,3.4-8.1,6.4c-5.1,0.4-9.7,3.5-12,8.2c-0.8,1.6-1.3,3.4-1.5,5.1l-0.9-0.4c-0.9-0.4-1.9-0.1-2.4,0.8L192,298
		c-0.4,0.9-0.1,1.9,0.8,2.4l4.1,2.1l-1.5,4.4l-7,20.1l-4.3,12.5c-0.3,0.8,0.1,1.8,0.9,2.1l20.4,10.2c0.8,0.4,1.7,0.1,2.2-0.6
		l11.9-17.6l10.1-14.9l4.1,2.1c0.9,0.4,1.9,0.1,2.4-0.8l4.7-9.4c0.4-0.9,0.1-1.9-0.8-2.4l-0.9-0.4c1.3-1.2,2.4-2.7,3.2-4.3
		C245,298.2,244.2,291.8,240.4,287.3z M222.7,271.9c2.9-0.9,5.9-0.7,8.6,0.6c2.6,1.3,4.6,3.5,5.6,6.2c0.7,1.9,0.9,3.9,0.6,5.9
		c-0.6-0.4-1.2-0.8-1.8-1.1c-2.5-1.3-5.3-1.8-8.1-1.5c-1.5-2.4-3.5-4.3-6-5.6c-1.2-0.6-2.5-1-3.8-1.3
		C219,273.6,220.8,272.5,222.7,271.9z M204.6,284.7c1.9-3.8,5.7-6.2,10-6.3v0c0,0,0,0,0,0c1.8-0.1,3.7,0.4,5.3,1.2
		c2.2,1.1,4,2.9,5.1,5.1l0,0c1.6,3.2,1.6,6.9,0,10.1c0,0-0.1,0.1-0.1,0.2c-0.8,1.6-2,2.9-3.4,3.9l-18.1-9.1
		C203.4,288.1,203.8,286.3,204.6,284.7z M187.9,339.2l2.1-6.2l2.9,8.7L187.9,339.2z M205.6,348l-8.2-4.1l-5.4-16.3l5.1-14.8l10.7,32
		L205.6,348z M210.2,341.1L199,307.3l1.2-3.3l7.8,3.9l8.2,24.5L210.2,341.1z M233.7,316.9L233.7,316.9l-3.9-2
		c-0.8-0.4-1.7-0.1-2.2,0.6l-9,13.3l-6.2-18.6l11.1,5.6l1.6-3.1L199.9,300l-3.9-2l3.1-6.3l1.8,0.9l19.9,10l14.2,7.1l1.8,0.9
		L233.7,316.9z M239.2,302c-0.8,1.6-2,3.1-3.5,4.1l-10.7-5.4c1.2-1.1,2.3-2.5,3.1-4c0-0.1,0.1-0.1,0.2-0.3c1.7-3.5,2-7.4,0.9-11
		c1.7,0,3.4,0.4,5,1.2c1.2,0.6,2.2,1.3,3.1,2.3c0,0,0,0,0,0l0,0C240.5,292.4,241.3,297.6,239.2,302z"/>

		<rect x="208.4" y="283.7" transform="matrix(0.4476 -0.8942 0.8942 0.4476 -139.1919 345.5857)" class="st0" width="3.5" height="3.5"/>

		<rect x="217" y="282.1" transform="matrix(0.4476 -0.8942 0.8942 0.4476 -133.0184 352.441)" class="st0" width="3.5" height="3.5"/>

		<rect x="217" y="290" transform="matrix(0.4476 -0.8942 0.8942 0.4476 -140.0428 356.7823)" class="st0" width="3.5" height="3.5"/>

		<rect x="232.7" y="297.8" transform="matrix(0.4476 -0.8942 0.8942 0.4476 -138.3969 375.1662)" class="st0" width="3.5" height="3.5"/>

		<rect x="232.7" y="290" transform="matrix(0.4476 -0.8942 0.8942 0.4476 -131.3709 370.8332)" class="st0" width="3.5" height="3.5"/>

		<rect x="225.3" y="273.5" transform="matrix(0.4476 -0.8942 0.8942 0.4476 -120.7366 355.0536)" class="st0" width="3.5" height="3.5"/>

		<rect x="230.7" y="276.2" transform="matrix(0.4476 -0.8942 0.8942 0.4476 -120.1617 361.4834)" class="st0" width="3.5" height="3.5"/>
	<path class="st0" d="M457.1,328.5c1.5-3.1,2.6-6.5,3.2-10c0.7-4.1,0.7-8.3,0.1-12.5c2.7-4,4.1-7.1,4.5-9.2
		c1.9-11.2-5.6-21.8-16.7-23.8c-5-0.9-10,0.1-14.3,2.8c-1.5-0.4-2.9-0.8-4.3-1c-2.6-0.4-5.2-0.6-7.8-0.5c-7.3,0.2-14.4,2.6-20.5,6.9
		c-5.3,3.7-9.5,8.7-12.3,14.5c-1.5,3.1-2.6,6.5-3.2,10s-0.7,7-0.3,10.5c0.7,6.4,3,12.5,6.7,17.8c4.3,6,10.1,10.7,17,13.4
		c2.4,1,4.9,1.7,7.5,2.1c8.3,1.4,16.6,0.1,24-3.7C447.7,341.8,453.6,335.8,457.1,328.5z M457,318c-0.5,2.8-1.3,5.4-2.4,7.9l-8.7-1.5
		c4.7-5.4,8.6-10.2,11.6-14.2C457.6,312.8,457.5,315.4,457,318z M435,279c3.7-2.5,8.2-3.5,12.6-2.7c9.4,1.6,15.7,10.6,14.1,20
		c-0.2,1.2-1.1,3.7-4.4,8.5c-3.4,5.1-8.7,11.6-15.6,19.5c-1.2,1.3-2.2,2.5-3,3.3c-0.5-1.1-1-2.5-1.7-4.1c-3.3-8.3-5.8-15.4-7.4-21
		c-2.1-7.3-2.2-10.6-2-12.1C428.4,285.7,431,281.7,435,279z M432.9,322.1l-17-2.9l2.8-16.2l8,1.4
		C428.2,309.3,430.3,315.3,432.9,322.1z M423.2,277.6c1.9,0,3.8,0.2,5.8,0.5c0.5,0.1,1.1,0.2,1.6,0.3c-3.2,3-5.4,7-6.1,11.4
		c-0.4,2.3,0,6,1.4,11.1l-6.4-1.1L423.2,277.6z M403.8,283.4c4.8-3.2,10.3-5.2,16-5.7l-3.7,21.5l-14.6-2.5L403.8,283.4z
		 M415.5,302.4l-2.8,16.2l-14.6-2.5l2.8-16.2L415.5,302.4z M399.9,286.4l-1.7,9.7l0,0l-5.3-0.9C394.8,291.9,397.1,288.9,399.9,286.4
		z M392.6,328.5c-1.8-3.3-3-6.9-3.7-10.6l5.3,0.9L392.6,328.5z M388.6,314.5c-0.2-2.7-0.1-5.5,0.4-8.3c0.5-2.8,1.3-5.4,2.4-7.9
		l6.3,1.1l-2.8,16.2L388.6,314.5z M408.4,343.4c-5.2-2.4-9.7-6.1-13.2-10.7l2.3-13.3l14.6,2.5L408.4,343.4z M439,342.7
		c-6.8,3.5-14.3,4.7-21.9,3.4c-1.9-0.3-3.8-0.8-5.6-1.5l3.8-22.2l19,3.3c1.3,3.3,2.3,5.5,2.3,5.5c0.2,0.5,0.7,0.9,1.2,1c0,0,0,0,0,0
		c0.5,0.1,1.1-0.1,1.5-0.5c0,0,1.6-1.7,4-4.4l9.7,1.7C449.9,334.8,444.9,339.6,439,342.7z"/>

		<rect x="435.4" y="335.4" transform="matrix(0.1708 -0.9853 0.9853 0.1708 30.3291 710.1168)" class="st0" width="3.3" height="3.3"/>

		<rect x="441" y="332.2" transform="matrix(0.1708 -0.9853 0.9853 0.1708 38.0934 712.9288)" class="st0" width="3.3" height="3.3"/>

		<rect x="431.2" y="330.5" transform="matrix(0.1708 -0.9853 0.9853 0.1708 31.6934 701.9559)" class="st0" width="3.3" height="3.3"/>
	<path class="st0" d="M442.1,283.7l0.6-3.2c-5.4-0.9-10.5,2.7-11.4,8l3.2,0.6C435.1,285.5,438.6,283.1,442.1,283.7z"/>
	<path class="st0" d="M436.9,294.5c-0.7,4,2,7.9,6,8.6c4,0.7,7.9-2,8.6-6s-2-7.9-6-8.6C441.5,287.8,437.6,290.5,436.9,294.5z
		 M440.2,295c0.4-2.2,2.5-3.7,4.8-3.3c2.2,0.4,3.7,2.5,3.3,4.8c-0.4,2.2-2.5,3.7-4.8,3.3C441.3,299.4,439.8,297.3,440.2,295z"/>
	<path class="st0" d="M277.5,194.5c0.5,0.7,1.4,0.9,2.1,0.5c0.1,0,0.1-0.1,0.2-0.1c0.7-0.5,0.9-1.5,0.4-2.3l-2-2.8
		c-0.5-0.7-1.5-0.9-2.3-0.4c-0.7,0.5-0.9,1.5-0.4,2.3L277.5,194.5z"/>
	<path class="st0" d="M270.8,185.1c0.5,0.7,1.4,0.9,2.1,0.5c0.1,0,0.1-0.1,0.2-0.1c0.7-0.5,0.9-1.5,0.4-2.3l-2-2.8
		c-0.5-0.7-1.5-0.9-2.3-0.4c-0.7,0.5-0.9,1.5-0.4,2.3L270.8,185.1z"/>
	<path class="st0" d="M275.9,207.5c-0.1,0.9,0.5,1.7,1.4,1.9l3.4,0.5c0.4,0.1,0.7,0,1-0.2c0.4-0.2,0.8-0.7,0.8-1.2
		c0.1-0.9-0.5-1.7-1.4-1.9l-3.4-0.5C276.9,206,276.1,206.6,275.9,207.5z"/>
	<path class="st0" d="M284,203.7c0.2,0.4,0.4,0.7,0.8,0.9c0.5,0.2,1,0.2,1.4-0.1c0.3-0.2,0.6-0.4,0.7-0.8l0,0
		c0.2-0.5,0.2-1.1-0.2-1.6l-1.9-2.8c-0.5-0.7-1.5-0.9-2.3-0.4c-0.7,0.5-0.9,1.5-0.4,2.3L284,203.7z"/>
	<path class="st0" d="M262.6,170.6c-0.7,0.5-0.9,1.5-0.4,2.3l2,2.8c0.5,0.7,1.4,0.9,2.1,0.5c0.1,0,0.1-0.1,0.2-0.1
		c0.7-0.5,0.9-1.5,0.4-2.3l-2-2.8C264.3,170.2,263.3,170,262.6,170.6z"/>
	<path class="st0" d="M261.1,148.7c-1.1-0.3-2.3-0.2-3.3,0.3l-10.8,5.8c-1,0.6-1.8,1.5-2.1,2.6c-0.1,0.4-0.2,0.8-0.2,1.2l-25.6,4.3
		c-0.5,0.1-1,0.4-1.2,0.9c-0.2,0.5-0.2,1,0,1.5l4,7.4c0.2,0.4,0.6,0.7,1,0.8l24,6.8c0.4,0.1,0.9,0.1,1.2-0.1c0.1,0,0.2-0.1,0.2-0.1
		c0.4-0.3,0.6-0.8,0.6-1.3l-0.1-2.5l6.9-0.1l15,38c0.2,0.5,0.7,0.9,1.3,1l14.7,2.3c0.4,0.1,0.7,0,1-0.2c0.3-0.2,0.6-0.4,0.7-0.8
		l6.1-13.5c0.2-0.5,0.2-1.1-0.2-1.6l-23.5-33.2l3.9-5.8l2,1.4c0.4,0.3,1,0.4,1.5,0.2c0.1,0,0.2-0.1,0.2-0.1c0.4-0.2,0.7-0.5,0.8-0.9
		l7.4-23.8c0.1-0.4,0.1-0.9-0.1-1.3l-4-7.4c-0.3-0.5-0.7-0.8-1.2-0.8c-0.5-0.1-1,0.1-1.4,0.5l-17.6,19.1
		C261.9,149,261.5,148.8,261.1,148.7z M224.4,170.6l-2.6-4.8l23.4-3.9l0.3,12.7c0,0,0,0,0,0l0,2L224.4,170.6z M248.8,173l-0.2-8.2
		l4.8,5.3l0,0l1.1,2.8L248.8,173z M291.1,202.5l-5.2,11.5l-12.5-1.9L256.8,170l8.2-4.4l0,0.1L291.1,202.5z M268.8,165.3l-1.8-2.6
		l-1.9-6.9l0.7,0.5l6.2,4.3L268.8,165.3z M280.7,134l2.6,4.8l0,0l-6.5,21l-1.5-1c0,0,0,0,0,0l-9.9-6.8l-0.7-0.5L280.7,134z
		 M255.1,167.2l-6.9-7.7c0,0-0.1-0.1-0.1-0.2c-0.1-0.3-0.2-0.6-0.1-0.8c0.1-0.2,0.2-0.5,0.5-0.7l10.8-5.8c0.3-0.2,0.6-0.1,0.8-0.1
		c0.3,0.1,0.5,0.3,0.7,0.5c0,0.1,0.1,0.2,0.1,0.2l2.7,10L255.1,167.2z"/>
	<path class="st0" d="M299,199.7c0.4,0.8,1.4,1.1,2.2,0.7l12.4-6.7c0.8-0.4,1.1-1.4,0.7-2.2l-10.3-19c-0.4-0.8-1.4-1.1-2.2-0.7
		l-12.4,6.7c-0.8,0.4-1.1,1.4-0.7,2.2L299,199.7z M310.7,191.6l-9.6,5.2l-5.1-9.4l9.6-5.2L310.7,191.6z M302,175.4l2.1,3.9l-9.6,5.2
		l-2.1-3.9L302,175.4z"/>
	<path class="st0" d="M254.3,197.5l-12.4,6.7c-0.8,0.4-1.1,1.4-0.7,2.2l10.3,19c0.4,0.8,1.4,1.1,2.2,0.7l12.4-6.7
		c0.8-0.4,1.1-1.4,0.7-2.2l-10.3-19C256,197.4,255.1,197.1,254.3,197.5z M263.1,217.3l-9.6,5.2l-5.1-9.4l9.6-5.2L263.1,217.3z
		 M246.9,210.2l-2.1-3.9l9.6-5.2l2.1,3.9L246.9,210.2z"/>
	<path class="st0" d="M141.1,375.1c-9.8,1.6-16.5,10.9-14.9,20.7c1.6,9.8,10.9,16.5,20.7,14.9c9.8-1.6,16.5-10.9,14.9-20.7
		C160.1,380.1,150.9,373.5,141.1,375.1z M146.4,407.7c-8.2,1.3-15.9-4.2-17.2-12.4c-1.3-8.2,4.2-15.9,12.4-17.2s15.9,4.2,17.2,12.4
		C160.1,398.6,154.6,406.3,146.4,407.7z"/>
	<path class="st0" d="M141.9,380.3c-6.9,1.1-11.7,7.7-10.5,14.6s7.7,11.7,14.6,10.5c6.9-1.1,11.7-7.7,10.5-14.6
		C155.4,383.8,148.9,379.1,141.9,380.3z M145.6,402.5c-5.3,0.9-10.3-2.7-11.2-8c-0.9-5.3,2.7-10.3,8-11.2c5.3-0.9,10.3,2.7,11.2,8
		C154.5,396.6,150.9,401.6,145.6,402.5z"/>
	<path class="st0" d="M138.1,393.8l3-0.5c-0.3-2,1.1-4,3.1-4.3l-0.5-3C140,386.7,137.5,390.1,138.1,393.8z"/>
	<rect x="138.5" y="395" transform="matrix(0.9869 -0.1616 0.1616 0.9869 -62.2422 27.8412)" class="st0" width="3" height="3"/>
	<path class="st0" d="M119.3,381.7c-0.1-0.8-0.9-1.4-1.7-1.2l-14.8,2.4c-0.8,0.1-1.4,0.9-1.2,1.7l1.5,8.9c0.1,0.8,0.9,1.4,1.7,1.2
		l14.8-2.4c0.8-0.1,1.4-0.9,1.2-1.7L119.3,381.7z M116.1,389.8l-0.6-3.7l-3,0.5l0.6,3.7l-1.5,0.2l-0.6-3.7l-3,0.5l0.6,3.7l-3,0.5
		l-1-5.9l11.8-1.9l1,5.9L116.1,389.8z"/>
	<rect x="103.9" y="396.9" transform="matrix(0.9869 -0.1616 0.1616 0.9869 -62.9418 23.0009)" class="st0" width="12" height="3"/>
	<rect x="104.7" y="402.1" transform="matrix(0.9869 -0.1616 0.1616 0.9869 -63.8274 22.4691)" class="st0" width="3" height="3"/>
	<rect x="109.1" y="401.4" transform="matrix(0.9869 -0.1616 0.1616 0.9869 -63.6514 23.1775)" class="st0" width="3" height="3"/>
	<path class="st0" d="M165.6,367.2c-0.3-1.6-1.8-2.7-3.4-2.5l-45.2,7.4l-0.5-3c-0.3-1.6-1.8-2.7-3.4-2.5l-10.4,1.7
		c-1.6,0.3-2.7,1.8-2.5,3.4l0.5,3l-5.2,0.8c-1.6,0.3-2.7,1.8-2.5,3.4l7,42.9c0.3,1.6,1.8,2.7,3.4,2.5l66.6-10.9
		c1.6-0.3,2.7-1.8,2.5-3.4L165.6,367.2z M103.1,421.6l-7-42.9l6.7-1.1l5.9-1l-0.5-3l-4.4,0.7l-0.5-3l10.4-1.7l0.7,4.4
		c0.1,0.8,0.9,1.4,1.7,1.2l46.6-7.6l7,42.9L103.1,421.6z"/>
	<rect x="158.1" y="370.5" transform="matrix(0.9869 -0.1616 0.1616 0.9869 -58.0263 30.6792)" class="st0" width="3" height="3"/>
	<rect x="163.9" y="406.1" transform="matrix(0.9869 -0.1616 0.1616 0.9869 -63.693 32.0869)" class="st0" width="3" height="3"/>
	<rect x="104.7" y="415.8" transform="matrix(0.9869 -0.1616 0.1616 0.9869 -66.0391 22.6422)" class="st0" width="3" height="3"/>
	<path class="st0" d="M338.8,245.1c-6.3-4.3-13.7-6.6-21.4-6.6c-8,0-15.6,2.4-22,7.1c-4.8,3.4-8.8,8-11.5,13.2
		c-2.8,5.4-4.3,11.5-4.3,17.6s1.5,12.2,4.3,17.6c2.7,5.2,6.7,9.8,11.5,13.2c6.4,4.6,14,7.1,22,7.1c7.7,0,15.1-2.3,21.4-6.6
		c10.3-7.1,16.4-18.7,16.4-31.2C355.3,263.8,349.1,252.1,338.8,245.1z M317.4,241.8c6.4,0,12.6,1.8,18,5.1l-10.7,14.3
		c-2.3-1.1-4.8-1.7-7.3-1.7c-2.8,0-5.5,0.7-8,2l-10.6-14.2C304.4,243.7,310.8,241.8,317.4,241.8z M330.9,276.3
		c0,4.8-2.4,9.1-6.5,11.5c-2.1,1.3-4.5,1.9-6.9,1.9c-2.7,0-5.2-0.8-7.5-2.3c-3.8-2.5-6-6.7-6-11.2s2.2-8.7,6-11.2
		c2.2-1.5,4.8-2.3,7.5-2.3c2.5,0,4.9,0.7,7,1.9C328.5,267.2,330.9,271.5,330.9,276.3z M283,276.3c0-10.6,4.9-20.6,13.1-27.1
		l10.6,14.1c-3.8,3.2-6.1,7.9-6.1,12.9c0,5,2.2,9.8,6.1,12.9l-10.6,14.1C287.8,296.8,283,286.8,283,276.3z M317.4,310.7
		c-6.7,0-13.1-1.9-18.6-5.5l10.6-14.2c2.4,1.3,5.2,2,8,2c2.6,0,5.1-0.6,7.3-1.7l10.7,14.3C330.1,309,323.9,310.7,317.4,310.7z
		 M338.3,303.7l-10.6-14.1c4.2-3.2,6.6-8,6.6-13.3c0-5.3-2.4-10.2-6.6-13.4l10.6-14.1c8.6,6.5,13.7,16.7,13.7,27.5
		S346.8,297.2,338.3,303.7z"/>
	<path class="st0" d="M293.4,262.5c-3.5,3.7-5.4,8.6-5.4,13.8c0,3.5,0.9,7,2.7,10.1l2.9-1.7c-1.5-2.5-2.2-5.5-2.2-8.4
		c0-4.3,1.6-8.4,4.5-11.5L293.4,262.5z"/>
	<path class="st0" d="M341.5,262.5l-2.5,2.3c2.9,3.1,4.5,7.2,4.5,11.5c0,2.9-0.8,5.8-2.2,8.4l2.9,1.7c1.8-3.1,2.7-6.6,2.7-10.1
		C346.9,271.1,345,266.2,341.5,262.5z"/>
	<path class="st0" d="M411.5,401.9C411.5,401.9,411.5,401.9,411.5,401.9C411.5,401.9,411.5,401.9,411.5,401.9
		c-0.4-3.2-1.6-6.3-3.4-8.9l-6.4-9.3l-0.6-0.9l-1.8-2.6c-3.1-4.5-7.7-7.5-13.1-8.4l0,0c0,0,0,0,0,0c-2.1-0.4-4.2-0.4-6.2-0.1
		c0.6-0.7,1.2-1.5,1.5-2.2c1-2,1.1-3.9,0.4-5.8c-1.6-3.9-6.6-5.7-6.8-5.8c-0.4-0.1-0.8-0.1-1.2,0.1c-0.4,0.2-0.7,0.5-0.8,0.9
		l-1.3,4.3c-0.7-1-1.7-1.8-2.9-2.6c-2.3-1.4-4.6-1.9-4.7-1.9c-0.5-0.1-1.1,0.1-1.4,0.5c-0.4,0.4-0.5,0.9-0.4,1.5l0.7,2.7
		c-1.3-0.8-2.9-1.5-4.5-1.8c-0.8-0.2-1.6,0.4-1.8,1.2c0,0.1-0.4,2.2-0.2,4.7l-2-1.5c-0.4-0.3-1-0.4-1.4-0.2c-0.5,0.2-0.8,0.6-1,1.1
		c0,0.1-0.6,2.3-0.1,4.9c0.2,1.2,0.7,2.6,1.6,3.9l-4.5-0.3c-0.4,0-0.8,0.1-1.2,0.4c-0.3,0.3-0.5,0.7-0.5,1.1c0,0.2-0.1,5.6,3,8.4
		c1.5,1.3,3.3,1.9,5.5,1.6c0.8-0.1,1.6-0.3,2.6-0.7c-1,1.8-1.7,3.8-2.1,5.9c0,0,0,0,0,0l0,0c-1,5.3,0.1,10.8,3.2,15.2l1.8,2.5
		l0.6,0.9l6.4,9.3c1.8,2.6,4.3,4.8,7.1,6.3c0,0,0,0,0,0c0,0,0,0,0,0l0,0c5.2,2.8,11.4,3.1,16.9,0.9l0,0c0,0,0,0,0,0l0,0
		c1.4-0.6,2.8-1.3,4-2.1l6.4-4.4c1.2-0.8,2.3-1.8,3.4-3l0,0c0,0,0,0,0,0C410.4,413.7,412.2,407.8,411.5,401.9L411.5,401.9z
		 M400.6,387.7l4.9,7.1c1.1,1.6,2,3.5,2.5,5.4l-9.4-1.7L400.6,387.7z M387.1,375.3c3.9,1,7.3,3.4,9.6,6.8l0.3,0.4l-10.8-2
		L387.1,375.3z M397.8,385.7l-2.2,12.2l-12.2-2.2l2.2-12.2L397.8,385.7z M384.1,374.7l-0.9,5.2l-10.5-1.9c0.3-0.2,0.5-0.4,0.8-0.6
		C376.6,375.4,380.4,374.4,384.1,374.7z M373.2,369.5l2.3-7.8c1.3,0.7,2.9,1.9,3.5,3.3c0.4,1,0.3,2-0.3,3.2c-0.8,1.6-3.3,4-7,6.6
		c0,0-0.1,0.1-0.1,0.1L373.2,369.5z M382.6,383l-2.2,12.2l-12.2-2.2l2.2-12.2L382.6,383z M367.4,363.5c2.1,1.3,3,3.1,2.8,5.3
		L369,373l-1.7-6.1l-1.1-4.1C366.6,363,367,363.2,367.4,363.5z M359.7,365.3c2.1,0.8,3.9,2.2,4.7,2.9l1.8,6.5l-5.7-4.1
		C359.7,369,359.6,366.9,359.7,365.3z M358.2,372.7C358.2,372.7,358.2,372.7,358.2,372.7L358.2,372.7l0.2,0.2l5.2,3.8l-4.4-0.3
		c-2.3-0.8-3.7-2.3-4.1-4.7c-0.1-0.4-0.1-0.9-0.1-1.2L358.2,372.7z M355.7,384.1c-1.3,0.1-2.3-0.1-3.1-0.8c-1.2-1.1-1.7-3-1.9-4.4
		l8.1,0.6l5.6,0.4C359.3,383.2,356.8,384,355.7,384.1z M362.6,406.2l-0.3-0.4c-2.3-3.4-3.3-7.3-2.9-11.4l5.2,1L362.6,406.2z
		 M359.9,391.4c1.1-3.8,3.4-7.1,6.7-9.3l0.4-0.3l-1.9,10.5L359.9,391.4z M375.3,422.8c-1.6-1.1-3.1-2.6-4.2-4.2l-4.9-7.1l10.8,2
		L375.3,422.8z M365.4,408.2l2.2-12.2l12.2,2.2l-2.2,12.2L365.4,408.2z M390.6,425c-4.1,1.4-8.5,1.2-12.5-0.6l1.9-10.4l12.2,2.2
		L390.6,425z M380.6,410.9l2.2-12.2L395,401l-2.2,12.2L380.6,410.9z M401.2,418.5l-6.4,4.4c-0.2,0.2-0.5,0.3-0.7,0.5l1.2-6.6
		l6.6,1.2C401.7,418.2,401.4,418.3,401.2,418.5z M404.6,415.3l-8.8-1.6l2.2-12.2l10.4,1.9C408.8,407.8,407.4,412,404.6,415.3z"/>

		<rect x="374" y="386.6" transform="matrix(0.8228 -0.5683 0.5683 0.8228 -154.0761 282.2268)" class="st0" width="3.1" height="3.1"/>

		<rect x="386.3" y="404.5" transform="matrix(0.8228 -0.5683 0.5683 0.8228 -162.0357 292.3965)" class="st0" width="3.1" height="3.1"/>

		<rect x="389.1" y="389.4" transform="matrix(0.8228 -0.5683 0.5683 0.8228 -152.9699 291.2854)" class="st0" width="3.1" height="3.1"/>

		<rect x="371.2" y="401.7" transform="matrix(0.8228 -0.5683 0.5683 0.8228 -163.1408 283.3319)" class="st0" width="3.1" height="3.1"/>

		<rect x="383.6" y="419.6" transform="matrix(0.8228 -0.5683 0.5683 0.8228 -171.099 293.4955)" class="st0" width="3.1" height="3.1"/>

		<rect x="401.4" y="407.3" transform="matrix(0.8228 -0.5683 0.5683 0.8228 -160.9294 301.455)" class="st0" width="3.1" height="3.1"/>
	<path class="st0" d="M315.2,138.6c7.9,5,17.3,6.7,26.4,4.7c9.1-2,17-7.5,22-15.3c5-7.9,6.7-17.3,4.7-26.4c-2-9.1-7.5-17-15.3-22
		c-6.1-3.9-13.1-5.8-20.1-5.5l-1.7-7.6l5.3-1.2c1-0.2,1.6-1.2,1.4-2.1l-1.5-7c-0.2-1-1.2-1.6-2.1-1.4l-22.8,5
		c-1,0.2-1.6,1.2-1.4,2.1l1.5,7c0.2,1,1.2,1.6,2.1,1.4l5.3-1.2l1.7,7.6c-6.5,2.7-12.1,7.4-16,13.4c-5,7.9-6.7,17.3-4.7,26.4
		C301.8,125.8,307.3,133.6,315.2,138.6z M314.6,66.5l-0.8-3.5l19.3-4.2l0.8,3.5l-5.3,1.2c-1,0.2-1.6,1.2-1.4,2.1l1.9,8.8l-5.3,1.2
		l-1.5-7l2.6-0.6l-0.8-3.5L314.6,66.5z M327.3,78.4c16.9-3.7,33.7,7,37.5,24c3.7,16.9-7,33.7-24,37.5c-16.9,3.7-33.7-7-37.5-24
		S310.4,82.1,327.3,78.4z"/>
	<path class="st0" d="M340,136.3c15-3.3,24.5-18.2,21.2-33.2c-3.3-15-18.2-24.5-33.2-21.2c-15,3.3-24.5,18.2-21.2,33.2
		S325,139.6,340,136.3z M327.1,85.9l0.8,3.4l3.5-0.8l-0.8-3.4c11.9-1.7,23.3,5.6,26.7,17.1l-3.4,0.8l0.8,3.5l3.4-0.8
		c1.7,11.9-5.6,23.3-17.1,26.7l-0.8-3.4l-3.5,0.8l0.8,3.4c-11.9,1.7-23.3-5.6-26.7-17.1l3.4-0.8l-0.8-3.5l-3.4,0.8
		C308.3,100.7,315.6,89.3,327.1,85.9z"/>
	<path class="st0" d="M324.4,124.2c0.4,0.3,0.9,0.3,1.4,0.2c0.3-0.1,0.5-0.2,0.7-0.4l13.2-10.7c0.3-0.2,0.5-0.6,0.6-1l4.2-16.5
		c0.2-0.7-0.1-1.5-0.8-2c-0.7-0.4-1.5-0.4-2.1,0.1l-13.3,10.7c-0.3,0.2-0.5,0.6-0.6,1l-4.2,16.5C323.4,123,323.7,123.8,324.4,124.2z
		 M339.7,100.3l-2.2,8.9l-4.9-3.1L339.7,100.3z M330.6,109.1l4.9,3.1l-7.1,5.8L330.6,109.1z"/>
	<path class="st0" d="M319,107.8c-1.2-5.3,2.2-10.6,7.5-11.8l-0.8-3.5c-7.3,1.6-11.9,8.8-10.3,16.1L319,107.8z"/>
	<path class="st0" d="M398.7,146.4l10.4,1.9c6.6,1.2,12.9-3.1,14.1-9.7l0.7-3.7l4.5,0.8l-0.7,3.7c-1.2,6.6,3.1,12.9,9.7,14.1
		l10.4,1.9c6.6,1.2,12.9-3.1,14.1-9.7L464,134l0.8-4.5c0.1-0.4,0-0.7-0.2-1l0,0l0,0c0,0,0,0,0,0L446.9,96c-0.2-0.4-0.6-0.7-1-0.8
		l-8.9-1.7c-0.8-0.2-1.6,0.4-1.8,1.2l-1,5.2c-0.2,0.8,0.4,1.6,1.2,1.8l6,1.1l11.8,23l-48.9-9.1l19.3-17.2l6,1.1
		c0.8,0.2,1.6-0.4,1.8-1.2l1-5.2c0.2-0.8-0.4-1.6-1.2-1.8l-8.9-1.7c-0.4-0.1-0.9,0-1.3,0.3l-28.3,23.9c0,0,0,0,0,0l0,0l0,0
		c-0.3,0.2-0.4,0.5-0.5,0.9l-0.8,4.5l-2.2,11.9C387.8,138.8,392.1,145.2,398.7,146.4z M443.8,100.8c-0.2-0.4-0.6-0.7-1.1-0.8l-5.2-1
		l0.4-2.2l6.7,1.3l15.9,29.1l-3.6-0.7L443.8,100.8z M422.3,93.9l6.7,1.3l-0.4,2.2l-5.2-1c-0.5-0.1-0.9,0-1.3,0.4L400.5,116l-3.6-0.7
		L422.3,93.9z M394.8,118l66.9,12.5l-0.3,1.5l-66.9-12.5L394.8,118z M392,132.8l1.9-10.4l66.9,12.5l-1.9,10.4
		c-0.9,4.9-5.7,8.2-10.6,7.3l-10.4-1.9c-4.9-0.9-8.2-5.7-7.3-10.6l1-5.2l0.6-3l-3-0.6l-0.3,1.5l-4.5-0.8l0.3-1.5l-3-0.6l-0.6,3
		l-1,5.2c-0.9,4.9-5.7,8.2-10.6,7.3l-10.4-1.9C394.3,142.5,391.1,137.8,392,132.8z"/>
	<path class="st0" d="M400.7,139.8l0.6-3c-1.6-0.3-2.7-1.9-2.4-3.5l-3-0.6C395.2,136.1,397.4,139.2,400.7,139.8z"/>
	<path class="st0" d="M439.3,147.1l0.6-3c-1.6-0.3-2.7-1.9-2.4-3.5l-3-0.6C433.9,143.3,436,146.4,439.3,147.1z"/>
	<path class="st0" d="M346.3,194.5l34.6,65.2c0.4,0.7,1.3,1,2.1,0.6l45.3-24.1c0.7-0.4,1-1.3,0.6-2.1L394.4,169
		c-0.4-0.7-1.3-1-2.1-0.6L347,192.4C346.2,192.8,345.9,193.8,346.3,194.5z M392.4,171.8l33.2,62.5l0,0L382.9,257l-33.2-62.5
		L392.4,171.8z"/>
	<path class="st0" d="M393.1,182.4c-0.4-0.7-1.3-1-2.1-0.6l-32.2,17.1c-0.7,0.4-1,1.3-0.6,2.1c0.4,0.7,1.3,1,2.1,0.6l32.2-17.1
		C393.2,184,393.4,183.1,393.1,182.4z"/>
	<path class="st0" d="M396.8,189.4c-0.4-0.7-1.3-1-2.1-0.6l-32.2,17.1c-0.7,0.4-1,1.3-0.6,2.1s1.3,1,2.1,0.6l32.2-17.1
		C396.9,191.1,397.2,190.2,396.8,189.4z"/>
	<path class="st0" d="M400.5,196.4c-0.4-0.7-1.3-1-2.1-0.6l-32.2,17.1c-0.7,0.4-1,1.3-0.6,2.1c0.4,0.7,1.3,1,2.1,0.6l32.2-17.1
		C400.6,198.1,400.9,197.2,400.5,196.4z"/>
	<path class="st0" d="M412.9,219.7c-0.4-0.7-1.3-1-2.1-0.6l-32.2,17.1c-0.7,0.4-1,1.3-0.6,2.1c0.4,0.7,1.3,1,2.1,0.6l32.2-17.1
		C413,221.4,413.3,220.5,412.9,219.7z"/>
	<path class="st0" d="M412.8,228.8c0.4,0.7,1.3,1,2.1,0.6l1.1-0.6c0.7-0.4,1-1.3,0.6-2.1c-0.4-0.7-1.3-1-2.1-0.6l-1.1,0.6
		C412.7,227.1,412.4,228.1,412.8,228.8z"/>
	<path class="st0" d="M383.8,245.9l25.5-13.5c0.7-0.4,1-1.3,0.6-2.1c-0.4-0.7-1.3-1-2.1-0.6l-25.5,13.5c-0.7,0.4-1,1.3-0.6,2.1
		C382.1,246,383,246.3,383.8,245.9z"/>
	<path class="st0" d="M420.3,178.2l-11.7-10.8c-0.5-0.4-1.2-0.5-1.8-0.2c-0.6,0.3-0.9,0.9-0.8,1.6l2.4,15.7c0,0.2,0.1,0.3,0.2,0.5
		l22.1,41.7c0.4,0.7,1.3,1,2.1,0.6l9.3-5c0.7-0.4,1-1.3,0.6-2.1l-22.1-41.7C420.6,178.5,420.5,178.4,420.3,178.2z M409.8,172.7
		l1.1,1l-0.8,0.4L409.8,172.7z M439.4,220.4l-6.6,3.5l-20.6-38.8l3.5-1.9c0.7-0.4,1-1.3,0.6-2.1c-0.4-0.7-1.3-1-2.1-0.6l-3,1.6
		l-0.7-4.8l2.8-1.5l4.9,4.5L439.4,220.4L439.4,220.4z"/>
	<path class="st0" d="M330.7,1.3c-1-0.2-1.9,0.5-2.1,1.5l-1,6.2c-0.2,1,0.5,1.9,1.5,2.1l4.5,0.7l-3.6,21.4c-0.2,1,0.5,1.9,1.5,2.1
		l46.4,7.7c1,0.2,1.9-0.5,2.1-1.5l3.6-21.4l4.5,0.7c1,0.2,1.9-0.5,2.1-1.5l1-6.2c0.2-1-0.5-1.9-1.5-2.1l-8-1.3l1.6-9.7h-3.7L378,9.1
		l-2.7-0.4l0.9-5.4l0.6-3.3h-3.7l-0.2,1l-5.4-0.9l0-0.1h-11c0,0,0,0,0,0.1l-0.9,5.4l-13.4-2.2l0.5-3.2h-3.7l-0.4,2.6L330.7,1.3z
		 M376.6,39.2l-36.6-6.1l1.8-10.7l-3.6-0.6l-1.8,10.7l-2.7-0.4l3.3-19.6l36.6,6.1l-1.8,10.7l3.6,0.6l1.8-10.7l2.7,0.4L376.6,39.2z
		 M359.8,2.5l5.4,0.9l7.1,1.2l-0.6,3.6L359.2,6L359.8,2.5z M356.9,9.3l16.1,2.7l14.3,2.4l-0.4,2.7h0l-4.5-0.7l-46.4-7.7l-4.5-0.7
		l0.4-2.7L356.9,9.3z"/>
	<path class="st0" d="M365.9,20.9l-16.1-2.7c-1-0.2-1.9,0.5-2.1,1.5l-1.5,8.9c-0.2,1,0.5,1.9,1.5,2.1l16.1,2.7
		c1,0.2,1.9-0.5,2.1-1.5l1.5-8.9C367.6,22,366.9,21,365.9,20.9z M362.6,29.5l-12.5-2.1l0.9-5.4l12.5,2.1L362.6,29.5z"/>

		<rect x="339" y="15.8" transform="matrix(0.1646 -0.9864 0.9864 0.1646 267.3398 350.8608)" class="st0" width="3.6" height="3.6"/>

		<rect x="371.1" y="32.2" transform="matrix(0.1646 -0.9864 0.9864 0.1646 278.0261 396.1909)" class="st0" width="3.6" height="3.6"/>
	<path class="st0" d="M99,1.1c-0.3,0.9,0.2,1.9,1.1,2.1l11,3.4c0.9,0.3,1.9-0.2,2.1-1.1c0.3-0.9-0.2-1.9-1.1-2.1L101.2,0H100
		C99.6,0.2,99.2,0.6,99,1.1z"/>
	<path class="st0" d="M101.8,11l7.2,2.2c0.9,0.3,1.9-0.2,2.1-1.1c0.3-0.9-0.2-1.9-1.1-2.1l-7.2-2.2C102,7.5,101,8,100.7,8.9
		C100.5,9.8,101,10.8,101.8,11z"/>
	<path class="st0" d="M60.9,15c-1.3,4.1,0.6,8.5,4.4,10.4l-1.6,5.1c-0.2,0.6,0,1.2,0.4,1.7c0.2,0.2,0.5,0.4,0.7,0.5
		c0.3,0.1,0.6,0.1,0.9,0l12.2-3.1L92.3,34c4.6,1.4,9.5-1.1,10.9-5.7l2.4-7.7l3.1,1c4.9,1.5,10.2-1.2,11.7-6.1l4-12.6
		c0.3-0.9,0.4-1.9,0.4-2.8h-3.4c0,0.6-0.1,1.2-0.3,1.8l-4,12.6c-1,3.1-4.3,4.9-7.4,3.9l-16.1-5c-0.4-0.1-0.8-0.1-1.1,0l-11.1,4.2
		l1.8-5.7c0.3-0.9-0.2-1.9-1.1-2.1l-0.3-0.1c-3.1-1-4.9-4.3-3.9-7.4L78.7,0H66.6c-0.9,0.9-1.6,2.1-2,3.4L60.9,15z M74.5,0.9L74.8,1
		l0,0.1c-1.4,4.5,0.7,9.2,4.8,11.2l-2.4,7.6c-0.2,0.6,0,1.3,0.5,1.8c0.2,0.2,0.4,0.3,0.7,0.4c0.4,0.1,0.8,0.1,1.1,0l13.8-5.3
		l9.1,2.9l-2.4,7.7l0,0c-0.9,2.8-3.9,4.4-6.7,3.5l-14.8-4.6c-0.3-0.1-0.6-0.1-0.9,0l-9.7,2.5l1.1-3.7c0.3-0.9-0.2-1.9-1.1-2.1
		l-0.3-0.1c-2.8-0.9-4.4-3.9-3.5-6.7l3.6-11.6C68.7,1.6,71.7,0,74.5,0.9z"/>
	<path class="st0" d="M92.1,7.9C92.3,8,92.6,8,92.8,8c0.6-0.1,1.2-0.6,1.4-1.2L96.3,0h-3.6L92,2.4L90.3,0h-4.1l4.9,7.2
		C91.4,7.6,91.7,7.8,92.1,7.9z"/>
	<path class="st0" d="M432.2,2.3l5.2,1.1l-6.9,33.2l-11.4-2.4c-1-0.2-1.9,0.4-2.1,1.4l-6.2,29.7c-0.6,2.9,1.3,5.7,4.1,6.3l26.2,5.5
		c2.9,0.6,5.7-1.3,6.3-4.1l6.2-29.7c0.2-1-0.4-1.9-1.4-2.1L441,38.8L448,5.6l5.2,1.1c1,0.2,1.9-0.4,2.1-1.4l1.1-5.3h-3.6l-0.6,2.8
		l-5.2-1.1c-1-0.2-1.9,0.4-2.1,1.4l-7.3,34.9l-3.5-0.7l7.3-34.9c0.2-1-0.4-1.9-1.4-2.1c0,0-0.8-0.2-1.4-0.3h-7.7l0,0.2
		C430.6,1.2,431.3,2.1,432.2,2.3z M438.6,41.9l11.4,2.4l-5.8,27.9c-0.2,1-1.1,1.6-2.1,1.4l-26.2-5.5c-1-0.2-1.6-1.1-1.4-2.1l4.4-21
		l24.5,5.1l0.7-3.5l-24.5-5.1l0.7-3.5l11.4,2.4L438.6,41.9z"/>
	<path class="st0" d="M422,60.3l-3.5-0.7l-0.9,4.4c-0.2,1,0.4,1.9,1.4,2.1l4.4,0.9l0.7-3.5l-2.6-0.5L422,60.3z"/>
	<path class="st0" d="M155.1,0.9l13.7,1l4.6,12.9c0.2,0.5,0.6,0.9,1,1c0.5,0.2,1,0.1,1.4-0.2l11.5-7.4l11.5,7.4
		c0.3,0.2,0.6,0.3,0.9,0.3c0.2,0,0.4,0,0.5-0.1c0.5-0.2,0.9-0.5,1-1L206,2l13.7-1c0.5,0,1-0.3,1.3-0.7c0-0.1,0.1-0.1,0.1-0.2h-17.9
		l-4.2,11.7l-10.6-6.9c-0.3-0.2-0.6-0.3-0.9-0.3c-0.3,0-0.6,0.1-0.9,0.3l-10.6,6.9L171.6,0h-17.9c0,0.1,0.1,0.1,0.1,0.2
		C154.2,0.6,154.6,0.9,155.1,0.9z"/>
	<path class="st0" d="M192,0h-9.2c1.5,0.3,3,0.4,4.6,0.4S190.5,0.3,192,0z"/>
	<path class="st0" d="M250.6,23.4c1.9,12.3,13.5,20.7,25.7,18.8s20.7-13.5,18.8-25.7c-1.1-7.2-5.6-13.2-11.8-16.5h-7.2l0,0.1
		c0.1,0.7,0.6,1.3,1.3,1.5c7.4,1.9,12.9,7.9,14.1,15.4c1.6,10.3-5.5,20-15.8,21.6c-10.3,1.6-20-5.5-21.6-15.8
		c-1.2-7.5,2.3-15,8.7-19c0.6-0.4,0.9-1.1,0.8-1.8L263.4,0h-3.7l0.2,1.5C253,6.4,249.3,14.9,250.6,23.4z"/>
	<path class="st0" d="M259.5,22l3.6-0.6c-0.8-5.4,2.9-10.5,8.3-11.3l-0.6-3.6C263.5,7.7,258.4,14.6,259.5,22z"/>
	<rect x="260.2" y="24.4" transform="matrix(0.9882 -0.1534 0.1534 0.9882 -0.9165 40.514)" class="st0" width="3.6" height="3.6"/>
	<path class="st0" d="M392.4,488.6c1,0.2,1.9-0.5,2.1-1.5c2.8-16.7-8.5-32.6-25.3-35.4c-16.7-2.8-32.6,8.5-35.4,25.3
		c-0.2,1,0.5,1.9,1.5,2.1l7.1,1.2l-3.3,19.7h3.7l3.2-19.1l35.7,6l-2.2,13.2h3.7l2.1-12.6L392.4,488.6z M337.7,475.9
		c3.2-13.8,16.7-22.9,30.9-20.5s23.9,15.3,22.5,29.4L337.7,475.9z"/>
	<path class="st0" d="M375.7,495l-8.9-1.5c-1-0.2-1.9,0.5-2.1,1.5l-0.7,4.5l-5.4-0.9c-1-0.2-1.9,0.5-2.1,1.4h11l0.4-2.6l5.4,0.9
		l-0.3,1.7h3.7l0.5-2.9C377.4,496.1,376.7,495.2,375.7,495z"/>

		<rect x="349.4" y="464.4" transform="matrix(0.1646 -0.9864 0.9864 0.1646 -166.4158 735.8794)" class="st0" width="3.6" height="3.6"/>

		<rect x="378.7" y="470.2" transform="matrix(0.1646 -0.9864 0.9864 0.1646 -147.6812 769.6015)" class="st0" width="3.6" height="3.6"/>

		<rect x="356.5" y="460.1" transform="matrix(0.1646 -0.9864 0.9864 0.1646 -156.2033 739.319)" class="st0" width="3.6" height="3.6"/>

		<rect x="382.1" y="477.2" transform="matrix(0.1646 -0.9864 0.9864 0.1646 -151.7176 778.809)" class="st0" width="3.6" height="3.6"/>

		<rect x="368.3" y="466.6" transform="matrix(0.1646 -0.9864 0.9864 0.1646 -152.8483 756.3646)" class="st0" width="3.6" height="3.6"/>

		<rect x="358.9" y="467.8" transform="matrix(0.1646 -0.9864 0.9864 0.1646 -161.8428 748.1196)" class="st0" width="3.6" height="3.6"/>

		<rect x="376.3" y="462.4" transform="matrix(0.1646 -0.9864 0.9864 0.1646 -142.0424 760.7996)" class="st0" width="3.6" height="3.6"/>

		<rect x="366.9" y="474.6" transform="matrix(0.1646 -0.9864 0.9864 0.1646 -161.884 761.749)" class="st0" width="3.6" height="3.6"/>

		<rect x="366.2" y="457.1" transform="matrix(0.1646 -0.9864 0.9864 0.1646 -145.2056 746.3589)" class="st0" width="3.6" height="3.6"/>

		<rect x="351.9" y="471.2" transform="matrix(0.1646 -0.9864 0.9864 0.1646 -171.0506 744.0833)" class="st0" width="3.6" height="3.6"/>

		<rect x="342.7" y="471.5" transform="matrix(0.1646 -0.9864 0.9864 0.1646 -179.0413 735.24)" class="st0" width="3.6" height="3.6"/>
	<path class="st0" d="M69.7,463.2l8.2,2.6c0.9,0.3,1.9-0.2,2.1-1.1s-0.2-1.9-1.1-2.1l-8.2-2.6c-0.9-0.3-1.9,0.2-2.1,1.1
		C68.3,461.9,68.8,462.9,69.7,463.2z"/>
	<path class="st0" d="M67.7,469.7l6.8,2.1c0.9,0.3,1.9-0.2,2.1-1.1c0.3-0.9-0.2-1.9-1.1-2.1l-6.8-2.1c-0.9-0.3-1.9,0.2-2.1,1.1
		S66.8,469.4,67.7,469.7z"/>
	<path class="st0" d="M78.3,471.2c-0.3,0.9,0.2,1.9,1.1,2.1l4.3,1.4c0.9,0.3,1.9-0.2,2.1-1.1c0.3-0.9-0.2-1.9-1.1-2.1l-4.3-1.4
		C79.5,469.8,78.5,470.3,78.3,471.2z"/>
	<path class="st0" d="M101.4,476.7l-9.3-2.9c-0.9-0.3-1.9,0.2-2.1,1.1c-0.3,0.9,0.2,1.9,1.1,2.1l9.3,2.9c0.9,0.3,1.9-0.2,2.1-1.1
		C102.8,477.9,102.3,477,101.4,476.7z"/>
	<path class="st0" d="M100.5,485.3c0.3-0.9-0.2-1.9-1.1-2.1l-32.7-10.3c-0.9-0.3-1.9,0.2-2.1,1.1c-0.3,0.9,0.2,1.9,1.1,2.1
		l32.7,10.3C99.3,486.7,100.2,486.2,100.5,485.3z"/>
	<path class="st0" d="M84.5,467.8l17.9,5.6c0.9,0.3,1.9-0.2,2.1-1.1s-0.2-1.9-1.1-2.1l-17.9-5.6c-0.9-0.3-1.9,0.2-2.1,1.1
		S83.6,467.5,84.5,467.8z"/>
	<path class="st0" d="M100,500h1.2l-0.1,0C100.8,499.9,100.4,499.9,100,500z"/>
	<path class="st0" d="M118.3,491.1l-8.2-2.6l4.5-14.4c1.8-5.8-1.4-12-7.2-13.9l-34.2-10.7c-5.8-1.8-12,1.4-13.9,7.2l-4.9,15.5
		c-1.8,5.8,1.4,12,7.2,13.9l16.1,5.1l-2.1,6.5l-0.3-0.1c-3.3-1-6.7,0-8.9,2.3h12.1l2.4-7.6l5.2,7.6h4.1l-7-10.2
		c-0.2-0.3-0.5-0.6-0.9-0.7l-19.7-6.2v0c-4-1.3-6.3-5.6-5-9.6l4.9-15.5c1.3-4,5.6-6.3,9.6-5l34.2,10.7c4,1.3,6.3,5.6,5,9.6
		l-4.9,15.5c-1.3,4-5.6,6.3-9.6,5l-0.3-0.1c-0.9-0.3-1.9,0.2-2.1,1.1l-1.7,5.4h3.6l0.9-2.8c4.7,0.9,9.4-1.4,11.7-5.5l8.4,2.6
		c2.5,0.8,4.2,3.1,4.2,5.7h3.4C124.8,496,122.3,492.3,118.3,491.1z"/>
	<path class="st0" d="M456.5,491l-21-4.4c-1-0.2-1.9,0.4-2.1,1.4l-2.5,12h7.7c-1.5-0.3-3.9-0.8-3.9-0.8l1.8-8.7l17.5,3.6l-1.2,5.9
		h3.6l1.4-6.9C458.1,492.1,457.4,491.2,456.5,491z"/>

		<rect x="442.6" y="490.4" transform="matrix(0.2042 -0.9789 0.9789 0.2042 -132.5793 830.2121)" class="st0" width="3.6" height="12.5"/>
	<path class="st0" d="M221.1,498.8l-3.9-13.1l10.6-8.7c0.4-0.3,0.6-0.8,0.6-1.3c0-0.5-0.2-1-0.6-1.3l-10.6-8.7l3.9-13.1
		c0.1-0.5,0.1-1-0.2-1.4c-0.3-0.4-0.7-0.7-1.3-0.7l-13.7-1l-4.6-12.9c-0.2-0.5-0.6-0.9-1-1c-0.5-0.2-1-0.1-1.4,0.2l-11.5,7.4
		l-11.5-7.4c-0.4-0.3-1-0.3-1.4-0.2c-0.5,0.2-0.9,0.5-1,1l-4.6,12.9l-13.7,1c-0.5,0-1,0.3-1.3,0.7c-0.3,0.4-0.4,0.9-0.2,1.4
		l3.9,13.1l-10.6,8.7c-0.4,0.3-0.6,0.8-0.6,1.3c0,0.5,0.2,1,0.6,1.3l10.6,8.7l-3.9,13.1c-0.1,0.4-0.1,0.8,0.1,1.2h17.9l-0.1-0.2
		c-0.2-0.6-0.8-1.1-1.5-1.1l-12.7-1l3.6-12.2c0.2-0.6,0-1.3-0.5-1.8l-9.9-8.1l9.9-8.1c0.5-0.4,0.7-1.1,0.5-1.8l-3.6-12.2l12.7-1
		c0.7,0,1.2-0.5,1.5-1.1l4.2-11.9l10.6,6.9c0.6,0.4,1.3,0.4,1.8,0l10.7-6.9l4.2,11.9c0.2,0.6,0.8,1.1,1.5,1.1l12.7,1l-3.6,12.2
		c-0.2,0.6,0,1.3,0.5,1.8l9.9,8.1l-9.9,8.1c-0.5,0.4-0.7,1.1-0.5,1.8l3.6,12.2l-12.7,1c-0.7,0-1.2,0.5-1.5,1.1l-0.1,0.2H221
		C221.2,499.6,221.2,499.2,221.1,498.8z"/>
	<path class="st0" d="M212.5,475.3c0-13.9-11.3-25.2-25.2-25.2c-13.9,0-25.2,11.3-25.2,25.2c0,12.3,8.9,22.6,20.6,24.7h9.2
		C203.7,497.8,212.5,487.6,212.5,475.3z M187.4,497.1c-12,0-21.8-9.8-21.8-21.8c0-12,9.8-21.8,21.8-21.8s21.8,9.8,21.8,21.8
		C209.2,487.3,199.4,497.1,187.4,497.1z"/>
	<path class="st0" d="M169.8,473.6h3.4c0-6,4.9-10.9,10.9-10.9v-3.4C176.2,459.3,169.8,465.7,169.8,473.6z"/>
	<path class="st0" d="M273.7,460.5c-0.6-3.9-4.3-6.6-8.2-6l-5.3,0.8c-3.9,0.6-6.6,4.3-6,8.2l5.7,36.5h3.7l-5.7-37
		c-0.3-2,1-3.8,3-4.1l5.3-0.8c2-0.3,3.8,1,4.1,3l6,38.9h7.2c-1.2-0.6-2.5-1.2-3.8-1.6L273.7,460.5z"/>
	<polygon class="st0" points="267.1,482.5 269.8,482.1 269.2,478.5 266.5,479 266,475.4 268.7,475 268.1,471.4 265.4,471.8
		264.9,468.3 267.6,467.8 267,464.3 260.8,465.2 265.7,497.3 272,496.4 271.4,492.8 268.8,493.2 268.2,489.6 270.9,489.2
		270.3,485.7 267.7,486.1 	"/>
	<path class="st0" d="M302,466.1l-0.6-3.6l-3.8,0.6c-0.3-0.9-0.8-1.6-1.4-2.3l2.1-2.9l-2.9-2.1l-2.1,2.9c-0.8-0.4-1.7-0.6-2.6-0.6
		l-0.6-3.8l-3.6,0.6l0.6,3.8c-0.9,0.3-1.6,0.8-2.3,1.4l-2.9-2.1l-2.1,2.9l2.9,2.1c-0.4,0.8-0.6,1.7-0.6,2.6l-3.8,0.6l0.6,3.6
		l3.8-0.6c0.3,0.9,0.8,1.6,1.4,2.3l-2.1,2.9l2.9,2.1l2.1-2.9c0.8,0.4,1.7,0.6,2.6,0.6l0.6,3.8l3.6-0.6l-0.6-3.8
		c0.9-0.3,1.6-0.8,2.3-1.4l2.9,2.1l2.1-2.9l-2.9-2.1c0.4-0.8,0.6-1.7,0.6-2.6L302,466.1z M290.8,470.6c-2.5,0.4-4.8-1.3-5.1-3.8
		c-0.4-2.5,1.3-4.8,3.8-5.1c2.5-0.4,4.8,1.3,5.1,3.8C295,467.9,293.3,470.2,290.8,470.6z"/>
	<path class="st0" d="M272.9,362.6l2.7,1.9l0.2,3.3c0,0.6,0.4,1.1,1,1.4c0.3,0.1,0.7,0.2,1,0.1c0.2,0,0.5-0.2,0.7-0.3l2.7-2l3.2,0.8
		c0.6,0.2,1.2,0,1.6-0.5c0.4-0.4,0.5-1.1,0.3-1.7l-1.1-3.1l1.8-2.8c0.3-0.5,0.3-1.2,0-1.7c-0.3-0.5-0.9-0.9-1.5-0.8l-3.3,0.1
		l-2.1-2.6c-0.4-0.5-1-0.7-1.6-0.6c-0.6,0.1-1.1,0.6-1.3,1.1l-1,3.2l-3.1,1.2c-0.6,0.2-1,0.7-1,1.3
		C272.1,361.6,272.4,362.2,272.9,362.6z M278.3,361.2c0.5-0.2,0.8-0.6,1-1.1l0.3-1l0.7,0.8c0.3,0.4,0.8,0.6,1.3,0.6l1,0l-0.6,0.9
		c-0.3,0.4-0.3,1-0.2,1.4l0.3,1l-1-0.3c-0.2-0.1-0.5-0.1-0.7,0s-0.5,0.2-0.7,0.3l-0.8,0.6l-0.1-1c0-0.5-0.3-1-0.7-1.3l-0.8-0.6
		L278.3,361.2z"/>
	<path class="st0" d="M258.6,362.2c0.2,0.9,1.1,1.5,2,1.3l7.6-1.5c0.9-0.2,1.5-1.1,1.3-2s-1.1-1.5-2-1.3l-7.6,1.5
		C259,360.5,258.4,361.3,258.6,362.2z"/>
	<path class="st0" d="M268.7,365.3l-7.6,1.5c-0.9,0.2-1.5,1.1-1.3,2s1.1,1.5,2,1.3l7.6-1.5c0.9-0.2,1.5-1.1,1.3-2
		C270.5,365.7,269.6,365.1,268.7,365.3z"/>
	<path class="st0" d="M283.5,371.6c-0.4-0.5-1-0.7-1.6-0.6c-0.6,0.1-1.1,0.6-1.3,1.1l-1,3.2l-3.1,1.2c-0.6,0.2-1,0.7-1,1.3
		c-0.1,0.6,0.2,1.2,0.7,1.6l2.7,1.9l0.2,3.3c0,0.6,0.4,1.2,1,1.4c0.6,0.3,1.2,0.2,1.7-0.2l2.7-2l3.2,0.8c0.2,0.1,0.5,0.1,0.7,0
		c0.3-0.1,0.7-0.2,0.9-0.5c0.4-0.4,0.5-1.1,0.3-1.7l-1.1-3.1l1.8-2.8c0.3-0.5,0.3-1.2,0-1.7c-0.3-0.5-0.9-0.9-1.5-0.8l-3.3,0.1
		L283.5,371.6z M285.2,379.8l0.3,1l-1-0.3c-0.2-0.1-0.5-0.1-0.7,0c-0.2,0-0.5,0.2-0.7,0.3l-0.8,0.6l-0.1-1c0-0.5-0.3-1-0.7-1.3
		l-0.8-0.6l1-0.4c0.5-0.2,0.8-0.6,1-1.1l0.3-1l0.7,0.8c0.3,0.4,0.8,0.6,1.3,0.6l1,0l-0.6,0.9C285.1,378.8,285,379.3,285.2,379.8z"/>
	<path class="st0" d="M262,379.1c0.2,0.9,1.1,1.5,2,1.3l7.6-1.5c0.9-0.2,1.5-1.1,1.3-2s-1.1-1.5-2-1.3l-7.6,1.5
		C262.4,377.4,261.8,378.2,262,379.1z"/>
	<path class="st0" d="M274.1,383.5c-0.2-0.9-1.1-1.5-2-1.3l-7.6,1.5c-0.9,0.2-1.5,1.1-1.3,2s1.1,1.5,2,1.3l7.6-1.5
		C273.7,385.3,274.3,384.4,274.1,383.5z"/>
	<path class="st0" d="M286.9,388.5c-0.4-0.5-1-0.7-1.6-0.6c-0.6,0.1-1.1,0.6-1.3,1.1l-1,3.2l-3.1,1.2c-0.6,0.2-1,0.7-1,1.3
		c-0.1,0.6,0.2,1.2,0.7,1.6l2.7,1.9l0.2,3.3c0,0.6,0.4,1.2,1,1.4c0.3,0.1,0.7,0.2,1,0.1c0.2,0,0.5-0.2,0.7-0.3l2.7-2l3.2,0.8
		c0.6,0.2,1.2,0,1.6-0.5c0.4-0.4,0.5-1.1,0.3-1.7l-1.1-3.1l1.8-2.8c0.3-0.5,0.3-1.2,0-1.7c-0.3-0.5-0.9-0.9-1.5-0.8l-3.3,0.1
		L286.9,388.5z M288.6,396.7l0.3,1l-1-0.3c-0.2-0.1-0.5-0.1-0.7,0c-0.2,0-0.5,0.2-0.7,0.3l-0.8,0.6l-0.1-1c0-0.5-0.3-1-0.7-1.3
		l-0.8-0.6l1-0.4c0.5-0.2,0.8-0.6,1-1.1l0.3-1l0.7,0.8c0.3,0.4,0.8,0.6,1.3,0.6l1,0l-0.6,0.9C288.5,395.7,288.4,396.2,288.6,396.7z"
		/>
	<path class="st0" d="M267.3,397.3l7.6-1.5c0.9-0.2,1.5-1.1,1.3-2s-1.1-1.5-2-1.3l-7.6,1.5c-0.9,0.2-1.5,1.1-1.3,2
		S266.4,397.5,267.3,397.3z"/>
	<path class="st0" d="M275.5,399.1l-7.6,1.5c-0.9,0.2-1.5,1.1-1.3,2c0.2,0.9,1.1,1.5,2,1.3l7.6-1.5c0.9-0.2,1.5-1.1,1.3-2
		S276.4,398.9,275.5,399.1z"/>
	<path class="st0" d="M296.3,339.6c-0.2-0.9-1.1-1.5-2-1.3l-11.5,2.3l-0.2-0.8c-0.2-0.9-1.1-1.5-2-1.3l-23.6,4.7
		c-0.9,0.2-1.5,1.1-1.3,2l0.2,0.8l-11.5,2.3c-0.9,0.2-1.5,1.1-1.3,2l14,69.9c0.2,0.9,1.1,1.5,2,1.3l49.7-9.9c0.9-0.2,1.5-1.1,1.3-2
		L296.3,339.6z M288.2,349.7l10.7,53.6l-33.5,6.7l-10.7-53.6L288.2,349.7z M279.8,342.1l1.1,5.7l-20.3,4.1l-1.1-5.7L279.8,342.1z
		 M306.7,408.5l-46.5,9.3l-13.3-66.6l9.8-2l0.7,3.3l-4.9,1c-0.9,0.2-1.5,1.1-1.3,2l11.4,56.9c0.2,0.9,1.1,1.5,2,1.3l36.7-7.3
		c0.9-0.2,1.5-1.1,1.3-2l-11.4-56.9c-0.2-0.9-1.1-1.5-2-1.3l-4.9,1l-0.7-3.3l9.8-2L306.7,408.5L306.7,408.5z"/>
	<path class="st0" d="M60.2,55l-1.8-9.3c-1.1-5.4-5.1-9.8-11.8-12.6c-4.8-2.1-9.3-2.6-9.5-2.7c-0.2,0-0.3,0-0.5,0L17,34.3l-0.5-2.4
		c-0.3-1.7-2-2.9-3.8-2.5L0,31.8v3.3l13.3-2.6l0.5,2.4h0L0,37.6v3.3l26.5-5.2c0.7,1.5,2,4.2,4.1,7.1c2.8,3.8,6,6.8,9.5,8.9L0,59.5
		v3.3l45.2-8.9c3.7,1.2,7.6,1.5,11.7,0.9l0.2,0.8c0.3,1.7-0.8,3.4-2.5,3.7L0,70.1v3.3l55.1-10.9C58.6,61.9,60.9,58.5,60.2,55z
		 M56.2,51.7c-3.8,0.5-7.4,0.2-10.7-1c-9-3.2-14-11.9-15.8-15.6l7.2-1.4c2,0.3,16.3,2.8,18.2,12.7L56.2,51.7L56.2,51.7z"/>
	<path class="st0" d="M3.4,80.9l-0.5-2.3l4.7-0.9l0.9,4.7l3.2-0.6L10.7,77l4.7-0.9l0.5,2.3l3.2-0.6l-0.5-2.3l4.7-0.9l0.9,4.7
		l3.2-0.6l-0.9-4.7l4.7-0.9l0.5,2.3l3.2-0.6l-0.5-2.3l4.7-0.9l0.9,4.7l3.2-0.6l-0.9-4.7l6.2-1.2l0.5,2.3l3.2-0.6L51.5,69l5.5-1.1
		l0.9,4.7l3.2-0.6l-1.2-6.3c-0.2-0.9-1-1.4-1.9-1.3L0,75.8v4.7l0.2,1L3.4,80.9z"/>
	<path class="st0" d="M10.2,53.5l-1.9-9.4c-0.2-0.9-1-1.4-1.9-1.3L0,44.1v3.3l5.5-1.1l1.2,6.2L0,53.8v3.3l8.9-1.8
		C9.8,55.2,10.3,54.3,10.2,53.5z"/>
	<path class="st0" d="M25.6,40.7c-0.2-0.9-1-1.4-1.9-1.3l-11,2.2c-0.9,0.2-1.4,1-1.3,1.9l1.9,9.4c0.2,0.9,1,1.4,1.9,1.3l11-2.2
		c0.9-0.2,1.4-1,1.3-1.9L25.6,40.7z M16.1,50.6l-1.2-6.2h0l2.3-0.5l0.8,3.9l3.2-0.6l-0.8-3.9l2.3-0.5l1.2,6.2L16.1,50.6z"/>

		<rect x="20.7" y="58.7" transform="matrix(0.9811 -0.1933 0.1933 0.9811 -11.0447 7.5387)" class="st0" width="24.8" height="3.2"/>
	<rect x="14.6" y="62.1" transform="matrix(0.9811 -0.1933 0.1933 0.9811 -12.0052 4.3418)" class="st0" width="3.2" height="3.2"/>
	<rect x="8.4" y="63.3" transform="matrix(0.9811 -0.1933 0.1933 0.9811 -12.3626 3.1523)" class="st0" width="3.2" height="3.2"/>
	<path class="st0" d="M3.8,29.5L1.2,16.2C1.1,15.6,0.6,15.1,0,15v11.8l0.6,3.3L3.8,29.5z"/>
	<path class="st0" d="M52,239.8c-0.5-2-1.5-3.9-2.9-5.4l3.9-2.2c0.4-0.2,0.8-0.7,0.9-1.2c0.1-0.5,0-1-0.3-1.4l-4.4-5.8l4.5-6.7
		c0.3-0.4,0.4-1,0.2-1.5c-0.2-0.5-0.5-0.9-1-1.1l-7-2.8l0.8-8.1c0.1-0.5-0.2-1.1-0.6-1.5c-0.4-0.4-1-0.5-1.5-0.5l-8,1.3l-2.7-7.6
		c-0.2-0.5-0.6-0.9-1.1-1.1c-0.5-0.2-1.1-0.1-1.5,0.2l-6.6,4.7l-5.9-4.7c-0.4-0.3-1-0.5-1.5-0.3c-0.5,0.1-1,0.5-1.2,1l-2.8,7
		l-8.1-0.8c-0.5-0.1-1,0.1-1.4,0.5c-0.4,0.4-0.6,0.9-0.5,1.4l0.7,9.6l3.5-0.3l-0.6-7.5l7.3,0.7c0.8,0.1,1.5-0.4,1.8-1.1l2.4-6l5.1,4
		c0.6,0.5,1.5,0.5,2.1,0.1l5.8-4.1l2.5,6.8c0.3,0.8,1.1,1.3,2,1.1l7.1-1.2l-0.7,7.1c-0.1,0.8,0.4,1.5,1.1,1.8l6.2,2.5l-4,6
		c-0.4,0.6-0.4,1.5,0.1,2.1l4,5.2l-3.3,1.8c-1.1-0.7-2.3-1.2-3.6-1.5c1.2-3.6,1.3-7.4,0.3-11c-2.7-10.4-13.4-16.6-23.7-13.8
		c-4.7,1.2-8.7,4.2-11.4,8.3c-0.3,0.4-0.5,0.9-0.8,1.3c-2.3-0.8-4.7-1-7.1-0.7v3.6c2.4-0.4,4.9-0.1,7.2,1c2.8,1.3,5,3.6,6.1,6.4
		c0.2,0.5,0.6,0.9,1.1,1c0.5,0.1,1.1,0.1,1.5-0.2c0.9-0.6,1.8-1.1,2.8-1.3c4.7-1.2,9.5,1.6,10.8,6.3c0.3,1.1,0.4,2.2,0.2,3.3
		c-0.1,0.7,0.3,1.4,0.9,1.8c0.4,0.2,0.9,0.3,1.3,0.1c0.3-0.1,0.5-0.2,0.7-0.4c1.2-1,2.5-1.7,4-2.1c1.1-0.3,2.2-0.4,3.3-0.3
		c0,0,0,0,0,0l0,0c1.8,0.2,3.5,0.8,5,1.9c1.8,1.3,3,3.2,3.6,5.3c1.4,5.2-1.7,10.5-6.9,11.9L0,263.5v3.7L42.5,256
		C49.6,254.1,53.8,246.8,52,239.8z M39,229.9c-1.1,0-2.2,0.2-3.2,0.4c-0.9,0.2-1.7,0.6-2.5,1c-0.1-0.4-0.1-0.8-0.2-1.1
		c-1.7-6.6-8.5-10.5-15.1-8.8c-0.8,0.2-1.5,0.5-2.2,0.8c-1.3-2.3-3.2-4.2-5.4-5.6c0.2-0.3,0.3-0.6,0.5-0.9c2.2-3.4,5.5-5.8,9.3-6.8
		c8.5-2.2,17.2,2.8,19.4,11.3C40.4,223.5,40.2,226.8,39,229.9z"/>
	<path class="st0" d="M21.8,212.1l0.9,3.4c4.2-1.1,8.6,1.4,9.7,5.7l3.4-0.9C34.3,214.2,28,210.5,21.8,212.1z"/>
	<path class="st0" d="M19.2,236.6c-4.2,1.1-6.8,5.5-5.7,9.7l3.4-0.9c-0.6-2.4,0.8-4.8,3.1-5.4c2.4-0.6,4.8,0.8,5.4,3.1
		c0.6,2.4-0.8,4.8-3.1,5.4L1,254.1l0.9,3.4l21.3-5.6c4.2-1.1,6.8-5.5,5.7-9.7C27.8,238,23.4,235.5,19.2,236.6z"/>
	<polygon class="st0" points="7.1,246.1 0,248 0,251.7 8,249.6 	"/>
	<path class="st0" d="M0,460.3v5.8l1-3.7C1.3,461.5,0.8,460.6,0,460.3z"/>
	<path class="st0" d="M1.8,409.8c0.8-2.8,0-5.7-1.8-7.8v14.1c0.2-0.4,0.3-0.8,0.4-1.2L1.8,409.8z"/>
	<path class="st0" d="M5.7,483.8l6.6-24c0,0,0.1,0,0.1,0c3.5,1,7.1-1.1,8-4.5l4.6-16.6c1.7-6-1.8-12.2-7.7-14.1
		c1.3-1.1,2.3-2.5,2.8-4.2l1.4-5.2c1.2-4.4-1.4-9-5.8-10.3l-1.1-0.3c-4.4-1.2-9,1.4-10.3,5.8l-1.4,5.2c-0.5,1.7-0.4,3.5,0.2,5
		l-3-0.8v4.9c1.9,2,2.7,4.9,1.9,7.7L0,439.5v16.7l0.1,0.1c0.2,0.2,0.5,0.3,0.7,0.4c0.3,0.1,0.5,0.1,0.8,0l8.3-1.7l-7.7,27.9l0,0
		c-0.3,1-1.2,1.7-2.3,1.7v3.5C2.6,488.1,5,486.4,5.7,483.8z M6.2,416.5l1.4-5.2c0.7-2.6,3.4-4.1,5.9-3.4l1.1,0.3
		c2.6,0.7,4.1,3.4,3.4,5.9l-1.4,5.2c-0.7,2.6-3.4,4.1-5.9,3.4l-1.1-0.3C7,421.7,5.5,419.1,6.2,416.5z M1.8,453l-1.6-1.5
		c0.3-0.5,0.5-1,0.6-1.5l4.6-16.6c0.8-3,0.4-6.1-1-8.7l11.5,3.2c4.3,1.2,6.9,5.6,5.7,9.9L17,454.4h0c-0.4,1.6-2.1,2.5-3.7,2.1
		c0,0-0.1,0-0.1,0l3.8-13.7l0,0c0.3-0.9-0.3-1.9-1.2-2.2c-0.9-0.3-1.9,0.3-2.2,1.2l0,0l-2.6,9.3L1.8,453z"/>
	<polygon class="st0" points="0,162.8 0,165.7 1.5,164 	"/>
	<path class="st0" d="M8.8,175.3c2.5,2.1,6.3,1.8,8.4-0.8l6.5-7.8c3.2,1.5,7.1,0.7,9.5-2.1l1.3-1.5c2.4-2.9,2.4-7,0.2-9.9
		c1.4-0.5,2.6-1.3,3.6-2.4l1.3-1.5c2.7-3.3,2.4-8.1-0.8-11c0.9-0.4,1.7-1,2.4-1.9c2.5-2.9,2.1-7.3-0.9-9.8L25.3,114
		c-0.9-1.2-3.2-4.3-3.7-6.4c-0.2-0.6-0.6-1.1-1.2-1.4c-0.6-0.2-1.3-0.2-1.8,0.2c-0.1,0-1.6,1-3.1,2.7c-2.2,2.3-3.4,4.8-3.5,7.2
		c0,0.1,0,0.1,0,0.2c-3.1-1.2-6.7-0.3-8.9,2.3l-1.3,1.5c-0.9,1.1-1.5,2.4-1.7,3.8v5.2l2,1.6l16,13.4l2.5-3.1L5.3,128.4
		c-1.7-1.4-1.9-3.9-0.5-5.6l1.3-1.5c1.4-1.7,3.9-1.9,5.6-0.5l3.8,3.2l9.2,7.6l2.5-3.1l-8.4-7c-2-1.7-3-3.4-2.9-5.1
		c0.1-1.9,1.5-3.8,2.9-5.1c1.3,2.7,3.2,5,3.5,5.4c0.1,0.1,0.2,0.2,0.3,0.3l15.3,12.7c1.3,1.1,1.4,2.9,0.4,4.2
		c-1.1,1.3-2.9,1.4-4.2,0.4c-0.8-0.7-2.1-0.6-2.8,0.3c-0.7,0.8-0.6,2.1,0.3,2.8l4.6,3.8c1.7,1.4,1.9,3.9,0.5,5.6l-1.3,1.5
		c-1.4,1.7-3.9,1.9-5.6,0.5c-0.8-0.7-2.1-0.6-2.8,0.3c-0.7,0.8-0.6,2.1,0.3,2.8l3.8,3.2c1.7,1.4,1.9,3.9,0.5,5.6l-1.3,1.5
		c-1.4,1.7-3.9,1.9-5.6,0.5L0,142.1v5.2l20.5,17.1l-6.4,7.6l0,0c-0.7,0.8-2,1-2.8,0.3L9.9,171c-0.7-0.6-1.8-0.6-2.6,0L0,177.3v5.3
		l8.6-7.5L8.8,175.3z"/>
	<polygon class="st0" points="5.8,157.2 1.2,153.4 0,154.9 0,157.6 3.2,160.3 	"/>
	<rect x="7.9" y="160.2" transform="matrix(0.6402 -0.7682 0.7682 0.6402 -121.8372 66.293)" class="st0" width="4" height="6"/>
	<path class="st0" d="M12.2,383.3l4-15.8l25.4,6.4c1,0.2,1.9-0.3,2.2-1.3l6.2-24.5c0.2-1-0.3-1.9-1.3-2.2l-25.4-6.4l1.3-5.3l7.9,2
		c0.4,0.1,0.7,0.1,1.1-0.1l20.6-7.8c0.6-0.2,1-0.7,1.1-1.2c0.1-0.6,0-1.2-0.4-1.6l-14.4-16.7c-0.2-0.3-0.6-0.5-0.9-0.6l-7.9-2
		L33,301c0.2-1-0.3-1.9-1.3-2.2l-10.5-2.7c-1-0.2-1.9,0.3-2.2,1.3l-1.3,5.3L0,298.3v3.7l38.1,9.6l12.3,14.3l-17.7,6.7L0,324.4v3.7
		l10.6,2.7L9.3,336l-7.9-2c-0.4-0.1-0.7-0.1-1.1,0.1L0,334.2v3.9l1.1-0.4L46,349l-5.3,21L0,359.7v3.7l2.2,0.6L0,372.7v9.4l10,2.5
		C11,384.9,12,384.3,12.2,383.3z M28.2,305.4l-7-1.8l0.9-3.5l7,1.8L28.2,305.4z M19.8,338.7l-7-1.8l1.3-5.3l7,1.8L19.8,338.7z
		 M2.2,378.9l3.5-14l7,1.8l-3.5,14L2.2,378.9z"/>
	<polygon class="st0" points="7.8,308.6 0,306.7 0,310.4 6.9,312.1 	"/>
	<polygon class="st0" points="29.2,323.4 0,316 0,319.7 28.3,326.9 	"/>

		<rect x="10.8" y="309.9" transform="matrix(0.2449 -0.9696 0.9696 0.2449 -292.711 247.6145)" class="st0" width="3.6" height="3.6"/>

		<rect x="29.5" y="356.2" transform="matrix(0.2449 -0.9696 0.9696 0.2449 -326.4877 303.0587)" class="st0" width="3.6" height="9.9"/>

		<rect x="19.9" y="332.2" transform="matrix(0.2449 -0.9696 0.9696 0.2449 -322.3621 284.8866)" class="st0" width="3.6" height="34.3"/>

		<rect x="19.4" y="356.8" transform="matrix(0.2449 -0.9696 0.9696 0.2449 -331.6218 291.3812)" class="st0" width="3.6" height="3.6"/>
	<polygon class="st0" points="485.3,76.3 500,73.4 500,70.1 484.7,73.1 	"/>
	<path class="st0" d="M489.8,37.1l0.5,2.4l-11.7,2.3l0.6,3.2l20.8-4.1v-3.3l-6.5,1.3l-0.5-2.4l7-1.4v-3.3l-7.7,1.5
		C490.6,33.7,489.5,35.4,489.8,37.1z"/>
	<polygon class="st0" points="483.3,66.1 500,62.8 500,59.5 482.7,62.9 	"/>
	<polygon class="st0" points="486.4,81.8 491.9,80.7 492.8,85.4 496,84.8 495.1,80.1 499.7,79.2 500,80.5 500,75.8 485.8,78.6 	"/>
	<path class="st0" d="M481.6,49.3l1.9,9.4c0.2,0.9,1,1.4,1.9,1.3l14.6-2.9v-3.3l-13.7,2.7l-1.2-6.2l8.6-1.7l0.8,3.9l3.2-0.6
		l-0.8-3.9l3.1-0.6v-3.3l-17.1,3.4C482,47.6,481.5,48.4,481.6,49.3z"/>
	<path class="st0" d="M499.3,15l-25.1,4.9l0.6,3.2l23.5-4.6l1.6,8.4V15C499.8,14.9,499.5,14.9,499.3,15z"/>
	<path class="st0" d="M486.4,233.3C486.4,233.4,486.4,233.4,486.4,233.3c-9,2.4-14.3,11.6-12,20.5c1.1,4.3,4.1,8.5,8,11.4
		c4.2,3.1,8.9,4.2,13.2,3.1l4.4-1.2v-3.7l-5.3,1.4c-7.1,1.9-15-5-16.9-12c-1.9-7.1,2.4-14.3,9.4-16.2c0.5-0.1,0.9-0.2,1.6-0.3
		c0.5-0.1,1-0.4,1.3-0.8c0.3-0.4,0.3-1,0.2-1.5c0-0.1-0.1-0.2-0.1-0.3c-0.1-0.2-0.1-0.4-0.2-0.5c-1.7-6.6,2.2-13.4,8.8-15.1
		c0.4-0.1,0.8-0.2,1.2-0.2v-3.6c-0.7,0.1-1.4,0.2-2.1,0.4C489.7,217,484.7,225.2,486.4,233.3z"/>

		<rect x="492.8" y="255.7" transform="matrix(0.9669 -0.2551 0.2551 0.9669 -49.2785 134.9158)" class="st0" width="5.3" height="3.5"/>
	<polygon class="st0" points="489.2,254.5 500,251.7 500,248 488.3,251.1 	"/>

		<ellipse transform="matrix(0.2651 -0.9642 0.9642 0.2651 -64.0437 788.6127)" class="st0" cx="485.3" cy="436.3" rx="1.8" ry="1.8"/>
	<ellipse transform="matrix(0.2651 -0.9642 0.9642 0.2651 -70.7266 791.3053)" class="st0" cx="483.7" cy="442" rx="1.8" ry="1.8"/>
	<path class="st0" d="M496,399.5l-1.1-0.3c-4.4-1.2-9,1.4-10.3,5.8l-1.4,5.2c-0.5,1.7-0.4,3.5,0.2,5l-5.3-1.5
		c1.3-1.1,2.3-2.5,2.8-4.2l1.4-5.2c1.2-4.4-1.4-9-5.8-10.3l-1.1-0.3c-4.4-1.2-9,1.4-10.3,5.8l-1.4,5.2c-0.5,1.7-0.4,3.5,0.2,5.1
		c-6-1.4-12.2,2.2-13.8,8.2l-4.6,16.6c-0.9,3.4,1.1,7,4.6,8c0,0,0.1,0,0.1,0l-6.6,24c-0.9,3.1,1,6.4,4.1,7.2l1.8,0.5
		c1.5,0.4,3.1,0.2,4.4-0.5c0.7,1.3,2,2.3,3.5,2.7l1.8,0.5c1.5,0.4,3.1,0.2,4.4-0.5c0.7,1.3,2,2.3,3.5,2.7l1.8,0.5
		c1.5,0.4,3.1,0.2,4.4-0.5c0.7,1.3,2,2.3,3.5,2.7l1.8,0.5c1.5,0.4,3.1,0.2,4.4-0.5c0.7,1.3,2,2.3,3.5,2.7l1.8,0.5
		c1.5,0.4,3.1,0.2,4.4-0.5c0.7,1.3,2,2.3,3.5,2.7l1.8,0.5c0.5,0.1,1,0.2,1.6,0.2v-3.5c-0.2,0-0.4,0-0.6-0.1l-1.8-0.5
		c-1.3-0.3-2-1.6-1.6-2.9l4.1-15v-5.8c-0.1,0-0.1-0.1-0.2-0.1c-0.9-0.3-1.9,0.3-2.2,1.2l-5.1,18.7c-0.3,1.3-1.6,2-2.9,1.6l-1.8-0.5
		c-1.3-0.3-2-1.6-1.6-2.9l6.6-24c0,0,0.1,0,0.1,0c1.7,0.5,3.4,0.2,4.8-0.5l2.4,2.2v-16.7l-2.6,9.5c-0.4,1.6-2.1,2.5-3.7,2.1
		c0,0-0.1,0-0.1,0l3.8-13.7l0,0c0.3-0.9-0.3-1.9-1.2-2.2c-0.9-0.3-1.9,0.3-2.2,1.2l0,0l-2.6,9.3l-9.2,1.9l-7-6.3l2.6-9.3l0,0
		c0.3-0.9-0.3-1.9-1.2-2.2c-0.9-0.3-1.9,0.3-2.2,1.2l0,0l-3.8,13.7c0,0-0.1,0-0.1,0c-1.6-0.4-2.5-2.1-2.1-3.6l4.6-16.6
		c1.1-3.9,4.8-6.3,8.7-5.9l3.5,12.3c0.2,0.6,0.6,1.1,1.2,1.2s1.2,0,1.7-0.4l9.3-8.8c1,0.4,1.8,1.1,2.6,1.8v-4.9l-2.3-0.6
		c1-0.8,1.8-1.9,2.3-3.1V402C499,400.8,497.6,399.9,496,399.5z M474.2,445.1l6.3,5.7c0.2,0.2,0.5,0.3,0.7,0.4c0.3,0.1,0.5,0.1,0.8,0
		l8.3-1.7l-7.7,27.9l0,0c-0.3,1.3-1.6,2-2.9,1.6l-1.8-0.5c-1.3-0.3-2-1.6-1.6-2.9l5.1-18.7c0.3-0.9-0.3-1.9-1.2-2.2
		c-0.9-0.3-1.9,0.3-2.2,1.2l-5.1,18.7c-0.3,1.3-1.6,2-2.9,1.6l-1.8-0.5c-1.3-0.3-2-1.6-1.6-2.9L474.2,445.1z M469.6,448.1
		c0,0,0.1,0,0.1,0l-6.6,24l0,0c-0.3,1.3-1.6,2-2.9,1.6l-1.8-0.5c-1.3-0.3-2-1.6-1.6-2.9l5.1-18.7c0.3-0.9-0.3-1.9-1.2-2.2
		c-0.9-0.3-1.9,0.3-2.2,1.2l-5.1,18.7c-0.3,1.3-1.6,2-2.9,1.6l-1.8-0.5c-1.3-0.3-2-1.6-1.6-2.9l7.7-27.9l6.3,5.7
		c0.2,0.2,0.5,0.3,0.7,0.4c0.3,0.1,0.5,0.1,0.8,0l3.3-0.7C466.6,446.5,467.9,447.6,469.6,448.1z M469.6,423.5l-4.6,16.6
		c-0.2,0.6-0.2,1.1-0.2,1.7l-2.2,0.4l-7-6.3l2.6-9.3l0,0c0.3-0.9-0.3-1.9-1.2-2.2c-0.9-0.3-1.9,0.3-2.2,1.2l0,0l-3.8,13.7
		c0,0-0.1,0-0.1,0c-1.6-0.4-2.5-2.1-2.1-3.6l4.6-16.6c1.2-4.3,5.7-6.8,10-5.6l11.5,3.2C472.4,418.1,470.4,420.5,469.6,423.5z
		 M471.5,412l-1.1-0.3c-2.6-0.7-4.1-3.4-3.4-5.9l1.4-5.2c0.7-2.6,3.4-4.1,5.9-3.4l1.1,0.3c2.6,0.7,4.1,3.4,3.4,5.9l-1.4,5.2
		C476.7,411.2,474.1,412.7,471.5,412z M487.8,427.1l-2.2-7.5l7.9,2.2L487.8,427.1z M498.4,408.8L497,414c-0.7,2.6-3.4,4.1-5.9,3.4
		l-1.1-0.3c-2.6-0.7-4.1-3.4-3.4-5.9l1.4-5.2c0.7-2.6,3.4-4.1,5.9-3.4l1.1,0.3C497.6,403.6,499.1,406.3,498.4,408.8z"/>
	<path class="st0" d="M490.3,126.2l-1.3,1.5c-2.4,2.8-2.4,6.9-0.3,9.7l-6.5,7.8c-2.1,2.5-1.8,6.3,0.8,8.4l0.2,0.2L465,184.5
		c-0.5,0.8-0.3,1.9,0.4,2.5l13.7,11.4c0.7,0.6,1.8,0.6,2.6,0l18.2-15.8v-5.3l-19.6,17l-11.1-9.3l16.9-28.6l12.7,10.6l1.1-1.3v-3
		l-13-10.9l-1.5-1.3c-0.8-0.7-1-2-0.3-2.8l6.4-7.6l8.5,7.1v-5.2l-7.4-6.2c-1.7-1.4-1.9-3.9-0.5-5.6l1.3-1.5c1.4-1.7,3.9-1.9,5.6-0.5
		l1.1,0.9V124c0,0.1,0,0.1,0,0.2C496.7,122.6,492.7,123.3,490.3,126.2z"/>
	<rect x="492.6" y="147.5" transform="matrix(0.6402 -0.7682 0.7682 0.6402 62.338 434.0921)" class="st0" width="4" height="6"/>
	<polygon class="st0" points="500,157.6 500,154.9 498.7,156.5 	"/>
	<path class="st0" d="M478.6,343.2c-0.1,0.6,0,1.2,0.4,1.6l14.4,16.7c0.2,0.3,0.6,0.5,0.9,0.6l5.7,1.4v-3.7l-4.2-1.1l-12.3-14.3
		l16.6-6.3v-3.9l-20.3,7.7C479.2,342.1,478.8,342.6,478.6,343.2z"/>
	<path class="st0" d="M490.1,297.7l-6.2,24.5c-0.2,1,0.3,1.9,1.3,2.2l14.8,3.7v-3.7l-12.1-3.1l5.3-21l6.8,1.7v-3.7l-7.7-1.9
		C491.3,296.1,490.3,296.7,490.1,297.7z"/>
	<path class="st0" d="M499.5,382l0.5,0.1v-9.4l-1.8,7.1C498,380.7,498.6,381.7,499.5,382z"/>
	<polygon class="st0" points="497.3,309.7 500,310.4 500,306.7 498.2,306.2 	"/>
	<polygon class="st0" points="495.1,318.5 500,319.7 500,316 496,315 	"/>
</g>
</svg>
