<?xml version="1.0" encoding="utf-8"?>
<!-- Generator: Adobe Illustrator 20.1.0, SVG Export Plug-In . SVG Version: 6.00 Build 0)  -->
<svg version="1.1" id="Capa_1" xmlns="http://www.w3.org/2000/svg" xmlns:xlink="http://www.w3.org/1999/xlink" x="0px" y="0px"
	 viewBox="0 0 612 612" style="enable-background:new 0 0 612 612;" xml:space="preserve">
<g>
	<g id="Left">
		<g>
			<path d="M258.2,439.9c7.5,0,14.2-2.9,19.3-7.6l0.1,0.1l114.7-105.2c5.9-5.5,9.3-13.1,9.3-21.2s-3.4-15.7-9.3-21.2L277.6,179.7
				l-0.1,0.1c-5.1-4.7-11.9-7.6-19.3-7.6c-15.8,0-28.7,12.9-28.7,28.7c0,8.4,3.6,15.8,9.4,21.1l-0.1,0.1l91.7,84l-91.7,84.1l0.1,0.1
				c-5.7,5.2-9.4,12.7-9.4,21.1C229.5,427,242.4,439.9,258.2,439.9z M306,612c169,0,306-137,306-306S475,0,306,0S0,137,0,306
				S137,612,306,612z M306,57.4c137.1,0,248.6,111.5,248.6,248.6S443.1,554.6,306,554.6S57.4,443.1,57.4,306S168.9,57.4,306,57.4z"
				/>
		</g>
	</g>
</g>
</svg>
