<svg xmlns="http://www.w3.org/2000/svg" viewBox="0 0 194.35 56.85"><defs><style>.cls-1{fill:#012c3b;}.cls-2{fill:#bf0000;}.cls-3{fill:#fff;}.cls-4{fill:#243f8e;}</style></defs><title>Asset 3</title><g id="Layer_2" data-name="Layer 2"><g id="Layer_1-2" data-name="Layer 1"><path class="cls-1" d="M74,12.74h1.8V3.4H74V2h5.63c4,0,6.44,2.23,6.44,6.12s-2.48,6.06-6.44,6.06H74Zm5.63,0c3,0,4.64-1.73,4.64-4.64s-1.67-4.7-4.64-4.7h-2.1v9.34Z"/><path class="cls-1" d="M87.78,8.1c0-3.89,2.53-6.37,6.49-6.37a10.57,10.57,0,0,1,4.33.93V5.88H96.93V3.65a8.08,8.08,0,0,0-2.6-.43A4.43,4.43,0,0,0,89.57,8a4.48,4.48,0,0,0,4.82,4.83,8.84,8.84,0,0,0,4.21-1.24V13.3a9.28,9.28,0,0,1-4.33,1C90.44,14.35,87.78,12.06,87.78,8.1Z"/><path class="cls-1" d="M108.74,12.74h1.92V3.4h-3v2h-1.61V2H117V5.44h-1.61v-2h-2.9v9.34h1.91v1.42h-5.56V12.74Z"/><path class="cls-1" d="M117.16,11.81c0-2.1,2-2.66,3.89-2.66h1.67V8.47c0-1.3-.49-1.79-2-1.79a10,10,0,0,0-2.9.49V5.88a10,10,0,0,1,3.21-.5c2.23,0,3.34.87,3.34,3v4.33h1.43V14.1h-3v-1a4.07,4.07,0,0,1-2.9,1.24A2.41,2.41,0,0,1,117.16,11.81Zm5.62.19V10.33h-1.6c-1.24,0-2.29.31-2.29,1.48a1.3,1.3,0,0,0,1.48,1.36A4.42,4.42,0,0,0,122.78,12Z"/><path class="cls-1" d="M126.43,12.74h1.49V1.36h-1.49V0h3.16V12.74h1.48V14.1h-4.64Z"/><path class="cls-1" d="M132.12,9.9c0-2.66,1.55-4.52,4.09-4.52S140,7.48,140,9.59a3.12,3.12,0,0,1-.06.74h-6.13A2.67,2.67,0,0,0,136.7,13a6,6,0,0,0,2.85-.8v1.36a5.93,5.93,0,0,1-3,.8A4.08,4.08,0,0,1,132.12,9.9Zm1.67-.81h4.58c-.06-1.23-.62-2.47-2.16-2.47S134,7.73,133.79,9.09Z"/><path class="cls-1" d="M141.22,12.74h1.42V6.93h-1.42V5.57h3.09V6.74a5.13,5.13,0,0,1,3.28-1.42A2.4,2.4,0,0,1,150.12,8v4.7h1.49V14.1H147V12.74h1.48V8.23c0-.93-.31-1.55-1.36-1.55a4.59,4.59,0,0,0-2.72,1.24v4.82h1.42V14.1h-4.57Z"/><path class="cls-1" d="M153.65,11.81V6.93h-1.48V5.57h1.48V3.34h1.67V5.57h2.54V6.93h-2.54v4.76c0,1,.49,1.3,1.36,1.3a3.57,3.57,0,0,0,1.3-.25V14a5.07,5.07,0,0,1-1.79.31A2.23,2.23,0,0,1,153.65,11.81Z"/><path class="cls-2" d="M74.91,21.65h4.7V45.46h8.72v4.46H74.85V21.65Z"/><path class="cls-2" d="M91.24,21.65h12.93V26H95.94v7.05h6.31v4.45H95.94v7.92h8.78v4.46H91.24Z"/><path class="cls-2" d="M111.09,21.65h6l5.08,28.27h-4.64l-.81-6.13h-5.25l-.93,6.13H106Zm5,17.75-2-13.17L112.21,39.4Z"/><path class="cls-2" d="M124.83,21.65h5.81c3.28,0,5.44.49,7.18,2.72,2,2.54,2.65,6.25,2.65,11.38s-.68,8.91-2.65,11.44c-1.74,2.23-3.9,2.73-7.18,2.73h-5.81Zm5.87,24.12c1.67,0,2.72-.18,3.34-1.11,1.12-1.49,1.49-4.46,1.49-8.91s-.44-7.42-1.49-8.91c-.68-.86-1.73-1.11-3.34-1.11h-1.17v20Z"/><path class="cls-2" d="M144.25,21.65h12.93V26H149v7.05h6.31v4.45H149v7.92h8.72v4.46H144.19V21.65Z"/><path class="cls-2" d="M171.83,49.92l-3.4-11.76a17.79,17.79,0,0,1-2,.13h-.68V49.92H161V21.65h6.25c2.66,0,4.7.12,6.55,1.48a8.71,8.71,0,0,1,2.73,6.81c0,3.46-1.3,5.93-3.9,7.48l3.9,12.5Zm-4.94-15.53c3.46,0,4.88-1.3,4.88-4.64,0-3-1.36-4.33-4.57-4.33-.44,0-.87.06-1.43.06v8.85A7.46,7.46,0,0,0,166.89,34.39Z"/><path class="cls-2" d="M184,41.87q.64,4.27,3.15,4.27a2.57,2.57,0,0,0,2.72-2.84c0-2.54-2.53-4.52-6.24-7.86a10.09,10.09,0,0,1-3.47-7.36,6.73,6.73,0,0,1,7-6.93c3.84,0,6.31,2.35,6.87,6.68l-4.27.68c-.31-2.22-1.3-3.46-2.72-3.46s-2.47,1.11-2.47,2.85c0,2,1.42,3.34,3.34,5.19,3.65,3.34,6.43,5.51,6.43,10a7,7,0,0,1-7.3,7.3c-4.27,0-7.05-2.85-7.61-7.86Z"/><path class="cls-3" d="M28.79,30a6.22,6.22,0,0,0-2.44,3.78l1.86,1.09L28,35l.3.18-2,1.14a6.21,6.21,0,0,0,2.43,3.78l4-2.32,3.65,2.14a6.2,6.2,0,0,0,2.23-4l-1.37-.79.14-.09-.35-.2,1.56-.91a6.17,6.17,0,0,0-2.31-3.81l-3.65,2.14Z"/><path class="cls-4" d="M24.79,37.18,4.52,49V21l20.3,11.88a8,8,0,0,1,2.43-3.79L0,13.12V56.85L27.16,41A7.9,7.9,0,0,1,24.79,37.18Z"/><path class="cls-4" d="M60.93,48.87l-20.66-12a7.79,7.79,0,0,1-2.23,4l27.4,16V38.42H60.93Z"/><path class="cls-4" d="M37.85,29.2A8,8,0,0,1,40.17,33L60.93,20.91v9.53h4.51V13.06Z"/><path class="cls-2" d="M32.47,28.77A6.25,6.25,0,1,0,38.72,35,6.22,6.22,0,0,0,32.47,28.77Z"/></g></g></svg>