<svg xmlns="http://www.w3.org/2000/svg" viewBox="0 0 65.44 43.79"><defs><style>.cls-1{fill:#fff;}.cls-2{fill:#bf0000;}</style></defs><title>Asset 2</title><g id="Layer_2" data-name="Layer 2"><g id="Layer_1-2" data-name="Layer 1"><path class="cls-1" d="M28.79,16.91a6.25,6.25,0,0,0-2.44,3.78l1.86,1.09L28,21.9l.3.17-2,1.15A6.24,6.24,0,0,0,28.78,27l4-2.33,3.65,2.14a6.2,6.2,0,0,0,2.23-4L37.28,22l.14-.08-.35-.21,1.56-.91A6.12,6.12,0,0,0,36.32,17l-3.65,2.14Z"/><path class="cls-1" d="M24.79,24.13,4.52,35.94v-28l20.3,11.87A8,8,0,0,1,27.25,16L0,.06V43.79L27.16,28A8,8,0,0,1,24.79,24.13Z"/><path class="cls-1" d="M60.93,35.81l-20.66-12a7.75,7.75,0,0,1-2.23,4l27.4,16V25.36H60.93Z"/><path class="cls-1" d="M37.85,16.15A7.91,7.91,0,0,1,40.17,20L60.93,7.86v9.52h4.51V0Z"/><path class="cls-2" d="M32.47,15.71A6.25,6.25,0,1,0,38.72,22,6.22,6.22,0,0,0,32.47,15.71Z"/></g></g></svg>